<?xml version="1.0" standalone="no"?>
<!DOCTYPE svg PUBLIC "-//W3C//DTD SVG 1.1//EN" "http://www.w3.org/Graphics/SVG/1.1/DTD/svg11.dtd" >
<svg xmlns="http://www.w3.org/2000/svg" xmlns:xlink="http://www.w3.org/1999/xlink" version="1.1">
<metadata>
Created by FontForge 20161116 at Thu Jul 19 05:03:53 2007
 By Jimmy Warting
VINE MONOGRAMS computer fonts v1.5 (c)2005, 2007 Harold Lohner " HLohner@aol.com " www.haroldsfonts.com
</metadata>
<defs>
<font id="VineMonogramsSolid" horiz-adv-x="719" >
  <font-face 
    font-family="Vine MonogramsSolid"
    font-weight="400"
    font-stretch="normal"
    units-per-em="1000"
    panose-1="0 0 4 0 0 0 0 0 0 0"
    ascent="800"
    descent="-200"
    x-height="748"
    cap-height="941"
    bbox="-493 -240 604 1150"
    underline-thickness="20"
    underline-position="-163"
    unicode-range="U+0020-00A0"
  />
<missing-glyph horiz-adv-x="500" 
d="M63 0v1150h375v-1150h-375zM125 63h250v1025h-250v-1025z" />
    <glyph glyph-name=".notdef" horiz-adv-x="500" 
d="M63 0v1150h375v-1150h-375zM125 63h250v1025h-250v-1025z" />
    <glyph glyph-name=".null" horiz-adv-x="0" 
 />
    <glyph glyph-name="nonmarkingreturn" horiz-adv-x="100" 
 />
    <glyph glyph-name="space" unicode=" " horiz-adv-x="100" 
 />
    <glyph glyph-name="ampersand" unicode="&#x26;" horiz-adv-x="213" 
 />
    <glyph glyph-name="seven" unicode="7" 
 />
    <glyph glyph-name="less" unicode="&#x3c;" horiz-adv-x="109" 
 />
    <glyph glyph-name="greater" unicode="&#x3e;" horiz-adv-x="109" 
 />
    <glyph glyph-name="question" unicode="?" horiz-adv-x="1944" 
 />
    <glyph glyph-name="A" unicode="A" horiz-adv-x="182" 
d="M22 994h12q59 0 113 -70q57 0 95 -89q33 -94 33 -222q-2 -79 -7 -119q41 15 121 87q101 109 101 241v5q0 49 -56 75l-16 2h-1q-29 0 -46 -41v-10q0 -10 16 -32v-11q0 -22 -26 -31h-6q-37 0 -50 71v6q0 61 71 103q19 9 41 10q87 0 131 -99q7 -22 7 -45q0 -156 -97 -265
q-48 -54 -77 -72q-79 -57 -121 -72q-28 -231 -28 -327v-17q0 -131 85 -192q31 -15 58 -15h5q73 0 95 109q3 21 3 36q0 68 -70 92l-30 3q-41 0 -64 -52q-4 -10 -4 -23v-6q0 -26 18 -45q6 -5 12 -5h2q8 0 38 21l4 1h8q31 -5 31 -25v-9q0 -36 -77 -52h-1q-72 0 -97 83l-4 36
q0 79 79 127q26 14 56 14h8q93 0 144 -95q10 -37 13 -37q30 -32 30 -74v-6q0 -109 -131 -150q-31 -7 -67 -7q-79 0 -130 54l-18 -1q-84 0 -118 148q-11 45 -11 96q8 106 30 281q-107 -37 -146 -70l-31 -29q18 -128 18 -168v-34q0 -161 -79 -209q-36 -15 -53 -15
q-40 -40 -65 -46q-17 -5 -47 -10q-15 -10 -45 -10h-2q-98 0 -158 101q-14 35 -14 63v13q0 44 37 65q10 55 41 91q40 44 97 44h4q50 0 96 -35q20 79 40 108l8 9q-42 248 -42 366v45q0 145 57 230q38 39 73 39q14 20 32 38q35 29 72 29zM-83 612q0 -44 24 -252q55 39 96 55
l61 23q39 10 39 13q7 61 10 118q-5 141 -12 189q0 16 -20 85q-11 33 -45 69q-22 19 -45 19q-35 0 -57 -49q-17 -24 -35 -100q-16 -81 -16 -170zM-394 -11q0 -86 84 -120q16 -4 25 -4h5q39 0 74 38q25 28 37 77q-5 -4 -24 -44q-29 -40 -69 -40h-6q-38 0 -72 39q-5 13 -5 17
v10q0 25 32 29q14 0 40 -29l10 -2q21 0 29 63v10q0 44 -65 67l-18 1q-50 0 -71 -66q-6 -30 -6 -46z" />
    <glyph glyph-name="B" unicode="B" horiz-adv-x="176" 
d="M-193 986h33q130 0 202 -44q78 44 176 44h20q128 0 235 -97q50 -58 50 -115v-28q0 -68 -64 -115q-34 -20 -78 -20q-69 0 -109 64q-10 23 -10 45q0 56 36 70l18 1q29 -6 29 -25v-12q0 -7 -17 -23l-1 -13v-5q0 -20 45 -35l13 -1h6q45 0 64 54l4 36q0 77 -110 127
q-53 26 -123 26q-66 0 -117 -19v-1q150 -103 150 -281v-5q0 -100 -62 -140q-12 -6 -37 -8v-1q90 -66 122 -169q27 -77 27 -168v-44l-1 -15v-1h1q24 49 89 75q22 5 40 5q86 0 142 -99q12 -30 12 -56v-9q0 -111 -107 -175q-41 -18 -81 -18q-79 0 -150 81h-1q-33 -45 -82 -45
l-17 2q-46 -42 -109 -42q-81 0 -132 79l-7 17q-36 -43 -80 -43q-30 -30 -50 -38q-51 -15 -97 -15q-92 0 -143 88q-14 31 -14 62v14q0 37 33 64q0 34 29 88q42 58 110 58h6q71 0 113 -64q17 -30 20 -51h1l1 26v3l-15 271l-2 156l2 42q-47 -43 -109 -43q-115 0 -172 117
q-12 37 -12 67v3q0 22 7 64q-12 17 -12 41v10q0 68 96 143q74 40 189 40zM-408 688q0 -78 77 -114q21 -7 37 -7h11q57 0 85 70l4 28q0 55 -51 73q-31 10 -31 38q0 21 30 28h8q31 -3 73 -40q17 -19 23 -36h1q24 73 82 138l32 34v1q-38 15 -88 15l-2 2h-5q-129 0 -205 -67
q-51 -37 -73 -113q-8 -26 -8 -50zM-56 550l1 -60q32 24 66 24h6q35 0 85 -19h1q27 56 27 130q0 138 -94 232q-92 -93 -92 -307zM6 372q-35 0 -58 14l1 -6q6 -161 9 -294l-1 -31l-1 -7h1q46 36 89 36h20q50 0 114 -41l3 55v12q0 199 -76 292h-1q-45 -30 -100 -30zM-382 -18
v-2q0 -73 60 -115q21 -9 33 -9h6q66 0 98 100q-40 -43 -79 -43h-6q-59 0 -73 40v8q5 30 25 30h8l38 -14h2q23 0 39 30l1 8q0 52 -45 76q-16 6 -31 6q-58 0 -74 -85zM362 12v-4q0 -30 34 -45l12 -2l16 2q30 -7 30 -26v-11q0 -18 -23 -28q-7 -3 -19 -3q-83 0 -112 89v1h-1
l-11 -46q53 -83 113 -83h8q70 0 109 81q9 25 9 50v2q0 56 -65 89q-16 5 -22 5h-7q-40 0 -68 -51q-3 -10 -3 -20zM-36 -71v-2q0 -48 67 -70l18 -1q78 0 116 115v1q-71 48 -109 48q-50 0 -85 -57q-7 -17 -7 -34z" />
    <glyph glyph-name="C" unicode="C" horiz-adv-x="181" 
d="M57 993h11q57 0 146 -71q51 -51 51 -64q36 -66 36 -115q34 -46 68 -56q14 -7 53 -9h1q37 0 83 57q14 29 14 67q0 82 -67 110q-15 4 -26 4h-9q-34 0 -51 -38q6 -22 6 -30v-7q-6 -25 -33 -25h-1q-23 0 -32 27q-4 14 -4 27v10q0 43 55 83q28 18 67 18q116 0 154 -126
q6 -28 6 -53v-8q0 -119 -119 -172q-21 -8 -43 -8h-12q-60 0 -112 39q-18 -113 -92 -113l-23 1q-30 -34 -78 -34q-46 0 -81 50q-66 -31 -89 -31q-9 -3 -30 -6l-2 -99q1 -160 5 -160q47 -8 77 -18q15 48 41 84q35 40 63 50q14 7 26 7h15q37 0 75 -32l16 1h16q48 0 78 -69
q19 -46 19 -96v-27l-1 -33q45 28 95 28q108 0 158 -104q13 -35 13 -70q0 -114 -104 -175q-35 -16 -77 -16q-78 0 -107 68q-9 17 -9 53q5 74 41 84h12q26 -7 26 -26q0 -9 -14 -55l-1 -8q0 -51 48 -51h11q74 0 105 94q3 18 3 32v2q0 75 -74 104q-16 4 -26 4h-11
q-68 0 -113 -88q-43 -109 -78 -146q-66 -74 -149 -74h-5q-66 0 -119 55q-69 0 -108 75h-1q0 -84 -108 -125q-19 -5 -32 -5h-7q-105 0 -163 118q-13 36 -13 77q0 199 253 280q-6 100 -6 162l2 105q-62 9 -138 72q-121 102 -121 224v20q0 76 58 125q23 14 48 14q18 0 34 -8
q28 16 55 16h13q56 0 103 -61q20 -32 20 -67l-1 -5v-1h1q27 55 76 77q10 3 20 4q50 57 113 57zM-90 588h1q12 0 65 18l19 9q-24 67 -24 127q0 103 79 153q11 5 21 5q65 0 86 -105l1 -26q0 -105 -79 -175q14 -22 28 -22h6q35 0 61 104l1 28q0 110 -41 181q-28 43 -74 43
q-122 0 -150 -340zM-386 797q0 -97 99 -176q45 -27 68 -27v1q0 48 36 192l3 6v1h-1q-22 -32 -54 -32q-22 0 -31 25v13q0 11 41 42q7 10 7 21v2q0 39 -52 59l-14 1q-42 0 -86 -63q-16 -28 -16 -65zM37 745v-5q0 -34 13 -83q42 43 42 118v4q0 37 -20 52q-35 -31 -35 -86z
M46 214q19 -9 58 -51q54 -64 54 -135v-11q0 -62 -46 -82q-12 -5 -24 -5h-15q-71 0 -96 82q-9 34 -9 93q0 34 4 71h-1q-49 16 -56 16v-1q31 -341 164 -341q75 0 106 98q12 35 19 100q7 61 7 102v3q0 126 -66 161q-15 5 -20 5q-24 0 -59 -50q-14 -29 -20 -55zM-409 -23
q0 -69 62 -112q28 -15 54 -15q41 0 74 44q4 11 4 19v6q0 31 -31 44q-25 19 -25 30v4q5 31 24 31h12q19 0 53 -25q-30 149 -30 187h-1q-74 -20 -136 -73q-60 -60 -60 -140zM35 138l-1 -50q0 -72 25 -89l23 -6q11 0 11 26v3q0 71 -58 116v0z" />
    <glyph glyph-name="D" unicode="D" horiz-adv-x="177" 
d="M-219 993h21q112 0 230 -59q88 50 194 50q232 0 310 -166q11 -28 11 -49v-13q0 -85 -73 -139q-32 -17 -60 -17h-11q-76 0 -134 75q-7 10 -9 24q5 31 32 31h5q11 0 51 -45q29 -21 62 -21q54 0 72 88l1 10q0 57 -83 119q-73 40 -176 40q-64 0 -129 -27v-1q34 -25 73 -73
q114 -143 114 -560q0 -77 -10 -153h1q57 38 127 38q124 0 167 -99q16 -35 16 -74v-14q0 -102 -91 -157q-35 -15 -69 -15h-4q-89 0 -124 88q-5 23 -5 48v5q0 26 27 32h6q22 0 29 -22q3 -7 5 -36q8 -28 25 -38q0 -7 39 -13h2q67 0 92 83l5 35q0 72 -66 104q-26 7 -47 7h-14
q-96 0 -144 -104q-15 -54 -32 -89q-32 -58 -74 -74q-8 -4 -18 -4h-2l-23 1q-34 -23 -80 -23h-4q-26 0 -60 15q-21 -15 -44 -15q-49 0 -102 48q-48 -51 -103 -51h-25q-70 0 -134 81q-28 44 -28 86v15q0 73 64 127q29 16 59 16l25 -2q20 8 43 8q68 0 122 -77l1 12v8l1 40
q-14 289 -18 408v50q0 178 122 306q12 9 29 27q-87 41 -176 41q-139 0 -191 -99q-18 -38 -18 -81q0 -65 67 -93q16 -6 33 -6h8q60 0 87 83q13 14 22 14h11q26 -6 26 -32q0 -29 -48 -89q-45 -41 -103 -41q-103 0 -154 101q-12 31 -12 60v15q0 156 168 218q47 14 93 14z
M-57 524q0 -57 21 -408v-2q0 -131 -71 -173v-2q30 -39 71 -70q33 -24 54 -24q64 0 92 92q43 123 43 352v49q0 294 -95 459q-14 23 -34 46q-25 -39 -50 -112q-31 -100 -31 -207zM-417 -47q0 -37 35 -71q37 -36 73 -36h7q33 0 72 40q-25 34 -63 116q-28 42 -60 42h-9
q-38 0 -54 -79z" />
    <glyph glyph-name="E" unicode="E" horiz-adv-x="179" 
d="M67 990h10q86 0 157 -53q44 -44 52 -70q23 -56 23 -78q42 -94 124 -94q57 0 91 82l4 27q0 60 -68 104q-18 6 -33 6h-7q-24 0 -69 -37l-8 -1q-33 5 -33 31v6q0 25 58 57q30 9 58 9q86 0 144 -93q21 -38 21 -78v-7q0 -92 -92 -153q-33 -17 -63 -17h-10q-64 0 -121 51h-1
q-28 -84 -91 -84h-6q-16 0 -31 5q-26 -22 -66 -22q-54 0 -96 47q-57 -30 -65 -30q8 -21 33 -50q65 25 107 25q70 0 90 -46q5 -13 5 -28q0 -43 -52 -59q-22 -4 -37 -4q-38 0 -99 19q-93 -99 -93 -251h1q12 0 82 -25v1q19 64 66 103q43 31 70 31h11q11 0 40 -6q17 16 44 16
q97 0 130 -183l2 -38h1q43 24 93 24h6q108 0 147 -118q5 -21 5 -39v-29q0 -89 -81 -142q-33 -15 -71 -15h-2q-77 0 -105 63q-9 25 -9 54v3q0 25 20 36q3 2 10 2h9q28 0 28 -63q11 -27 25 -27q11 -5 25 -5q62 0 80 62q7 24 7 52q0 76 -68 100l-21 3q-78 0 -111 -74
q-27 -88 -79 -148q-62 -58 -158 -58h-3q-74 0 -145 67l-16 -2h-6q-65 0 -123 122q-30 81 -30 149q-1 0 -2 22h-1q-35 0 -103 -38q-73 -52 -73 -146q0 -78 57 -104q21 -7 39 -7q36 0 51 31q2 9 4 46q8 22 23 22h8q21 0 29 -23q3 -6 3 -15v-14q0 -78 -78 -104q-20 -6 -46 -6
q-106 0 -147 112q-8 32 -8 63v4q0 183 203 243l39 7v0q0 124 81 245q24 27 50 50q-46 37 -64 67l-1 1v1l-28 -2h-7q-104 0 -193 66q-86 79 -86 161v14q0 112 106 159q33 8 62 8h2q83 0 111 -64q11 -27 11 -58l-1 -16v-1h1q9 37 55 89q36 33 69 33q22 -2 31 -5q44 29 93 29z
M-74 717v-22q0 -17 3 -35q34 12 55 26q-9 41 -9 74q0 79 47 128q20 15 39 15q48 0 66 -49q5 -18 5 -36v-11q0 -75 -65 -141q21 -20 42 -20h6q49 0 68 120l1 23q0 87 -66 126q-20 10 -45 10q-103 0 -139 -143q-8 -35 -8 -65zM-409 807q0 -61 78 -126q67 -41 139 -41v1
q-10 33 -10 69q0 81 18 127v1h-1q-9 -22 -30 -22h-5q-23 0 -27 36v15q0 53 -57 53q-69 0 -95 -59q-10 -25 -10 -54zM-183 843v-2h1v2h-1zM-184 840v-1h1v1h-1zM45 148q105 -74 105 -161v-1q0 -61 -45 -80q-17 -4 -27 -4q-73 0 -97 106q-9 36 -9 66l3 39q-40 15 -72 22v-1
q0 -71 44 -173q16 -28 57 -70q55 -44 92 -44q67 0 109 95q19 61 19 122v31q0 97 -55 142q-20 12 -39 12q-25 0 -61 -43q-16 -24 -24 -58z" />
    <glyph glyph-name="F" unicode="F" horiz-adv-x="190" 
d="M-168 985h14q89 0 280 -89q55 47 83 47h2q22 0 27 -34v-4q0 -18 -37 -36l-8 -7v-1q66 -32 175 -101q52 -27 75 -27q55 0 69 48q1 4 1 12v16q0 35 -40 56q-12 3 -20 3q-12 0 -40 -39q-11 -10 -18 -10h-8q-25 0 -29 32q0 20 38 59q28 21 58 21h2q79 0 113 -78
q10 -22 10 -54q0 -94 -91 -127q-23 -4 -41 -4h-10q-23 0 -64 15q-30 -20 -60 -20h-1q-33 0 -219 100v-1q-20 -39 -20 -99v-8q0 -47 16 -132l6 1v24q0 80 65 93l18 2q43 0 58 -46l2 -26v-2q0 -43 -33 -72v-1q28 -57 28 -96q0 -50 -23 -96l-5 -5v-1h1q96 0 209 -55
q51 -28 89 -60q90 -87 90 -203v-12q0 -105 -105 -160q-37 -16 -74 -16q-92 0 -145 83q-16 33 -16 68v4q0 99 73 130q10 4 19 4q29 -6 29 -25v-11q0 -23 -33 -31q-24 -26 -24 -62v-10q0 -57 74 -82q13 -2 27 -2q77 0 106 82q4 22 4 35q0 174 -230 242q-59 16 -140 16
q17 -84 17 -143q0 -186 -156 -263q-23 -9 -46 -9h-1q-15 0 -33 6q-78 -47 -190 -47q-132 0 -206 115q-15 31 -15 62v3q0 55 33 80q0 32 32 87q63 81 151 81h17q39 0 89 -24q31 37 56 53q45 31 105 48l2 2q-19 69 -31 128q-33 -20 -48 -61l-14 -52q-13 -17 -30 -17h-1
q-19 0 -27 18q-3 10 -3 16q0 38 37 104q27 33 49 48q21 14 26 14q-7 56 -7 94v13q0 92 53 189l15 21v1q-81 42 -247 85q-23 4 -37 4h-18q-96 0 -136 -85q-9 -26 -9 -47q0 -83 75 -114q0 -4 38 -8q68 0 89 46q6 13 6 25v5l-8 59q6 31 30 31h3q41 0 41 -85q0 -95 -96 -137
q-27 -7 -61 -7h-5q-95 0 -156 94q-19 43 -19 85v15q0 118 129 177q40 11 72 11h15l25 16q31 15 68 15zM102 457q15 -63 41 -158h19q-13 13 -13 57q-12 43 -30 83l-9 21zM-93 142q53 -49 53 -126q0 -96 -61 -113l-23 -3q-59 0 -79 61q-6 24 -6 56q0 44 26 107h-1
q-33 17 -60 17h-2q-92 0 -124 -93q-3 -24 -3 -36q0 -106 98 -142q46 -17 93 -17h4l25 2v-1q14 1 72 32q37 23 70 59q47 52 47 78q8 28 8 68v11q0 55 -13 116q-12 0 -71 -28q-17 -8 -53 -47v-1z" />
    <glyph glyph-name="G" unicode="G" horiz-adv-x="189" 
d="M42 982h13q60 0 129 -44q68 40 140 40h26q121 0 196 -100q31 -51 31 -115q0 -96 -90 -155q-34 -14 -62 -14h-6q-74 0 -121 74q0 -25 -27 -59q-23 -22 -46 -22q-28 -36 -55 -36h-18q-66 0 -91 72q-8 23 -8 53v15q0 114 70 197q-31 29 -80 29q-77 0 -110 -141
q-13 -67 -13 -139v-39q3 -175 108 -220l27 -4q60 0 113 85q19 36 42 66q34 41 45 41l7 2q24 0 32 -22l1 -12q0 -8 -19 -40q-13 -33 -13 -101q0 -64 34 -285l3 -34h1q17 48 80 80q24 8 44 8h26q81 0 129 -92q14 -42 14 -72v-25q0 -65 -64 -137q-58 -54 -134 -54
q-81 0 -158 53h-1q-36 -27 -63 -27l-24 1q-41 -31 -107 -31q-41 0 -115 25q-39 14 -75 50q-33 38 -41 58q-22 51 -22 65q-5 25 -8 27q-41 60 -101 60q-58 0 -87 -80l-3 -27q0 -69 64 -103q15 -4 22 -4h14q27 0 37 23q13 43 19 50q12 9 21 9q33 -4 33 -29v-9q0 -75 -82 -106
q-16 -5 -36 -5h-1q-101 0 -149 121q-7 26 -7 53v3q0 85 79 144q35 23 75 23h11q46 0 92 -30q0 50 42 116q42 47 99 47h4q16 0 42 -6q32 6 53 6q96 0 125 -90q7 -23 7 -49v-12l-2 -18q9 -65 18 -90h1l1 33q0 41 -22 195q-4 29 -6 78l1 34q-43 -29 -86 -29h-20q-43 0 -88 37
l-1 -1h-1l-24 -1q-84 0 -120 130q-16 60 -16 147v17q-39 -24 -81 -24q-120 0 -172 94q-17 33 -17 72v17q0 121 105 171q28 8 51 8h17q68 0 117 -70q13 -27 13 -57q0 -42 -29 -71q-8 -6 -18 -6h-4q-20 0 -28 22l-2 12q15 37 15 47v2q0 40 -65 57h-12q-70 0 -91 -80
q-5 -26 -5 -45q0 -81 86 -105q16 -4 31 -4h8q27 0 74 33q22 25 22 29q14 73 71 145q90 95 166 95zM237 895q38 -47 52 -90h1q42 69 96 69q61 0 74 -33l1 -11q-7 -31 -25 -31h-9q-7 0 -42 9q-19 -4 -39 -36q-4 -14 -5 -26q0 -56 55 -82q16 -5 29 -5q57 0 84 81l2 17v21
q0 73 -78 115q-39 21 -96 21q-53 0 -100 -19zM163 835q-45 -62 -45 -157q0 -47 26 -60l15 -2h3q17 0 32 75l1 16q0 70 -32 128zM-98 21q0 -94 71 -157q33 -22 71 -22q76 0 105 66q-36 44 -48 103h-2q-23 -15 -54 -15h-1q-61 0 -94 53q-12 22 -12 42q0 55 55 88q15 4 27 4
q30 0 39 -23v-17q0 -21 -37 -24q-13 0 -18 -30v-1q0 -16 34 -27h8q26 0 43 37l2 15q0 81 -73 81q-75 0 -106 -96q-10 -38 -10 -77zM356 22v-5q0 -27 33 -45l9 -2l22 4h3q22 0 28 -22q2 -3 2 -10v-7q-6 -30 -43 -30h-14h-3q-59 0 -93 73h-1q-7 -52 -22 -89q65 -40 109 -40h18
q80 0 122 104q4 20 4 33q0 81 -62 107l-34 5q-47 0 -74 -51q-4 -15 -4 -25z" />
    <glyph glyph-name="H" unicode="H" horiz-adv-x="180" 
d="M-349 983h11q35 0 76 -35q43 -11 64 -40q15 -20 15 -55q0 -60 -39 -60q-31 4 -31 31v3l6 34q0 18 -53 28h-12q-61 0 -82 -64q-6 -21 -6 -41q0 -57 64 -81q5 -3 36 -6q58 0 145 94q32 51 72 127q38 63 59 63h6q30 -5 30 -29v-4q0 -11 -22 -40q-16 -33 -24 -98
q-7 -47 -7 -86v-33q0 -59 16 -186h1q98 34 118 34h5q15 125 32 183q25 95 71 142q26 27 52 35q7 0 14 13q60 65 136 65h4q127 0 172 -106q8 -30 8 -57v-5q0 -41 -43 -73l-4 -1v-2q-13 -51 -58 -107q-58 -58 -86 -71q-43 -26 -131 -53q-18 -7 -46 -11v-6q-4 -134 -4 -240
q0 -309 135 -390q9 -5 24 -5h7q67 0 100 68q16 36 16 90v13q0 48 -63 80q-11 4 -26 4q-49 0 -67 -53l-3 -25q0 -28 27 -44q6 -3 44 -9q14 -11 14 -26q0 -26 -26 -34l-14 -2h-5q-72 0 -102 92l-2 40q0 71 83 116q27 11 51 11q77 0 132 -77l17 -31q41 -24 41 -86
q0 -99 -106 -171q-41 -22 -86 -22h-30q-57 0 -113 54h-19q-85 0 -130 168q-28 143 -28 196q-27 -39 -71 -53v-29q0 -153 -58 -249q-37 -47 -82 -47l-28 3q-30 -30 -53 -38q-38 -12 -81 -12q-139 0 -190 137q-4 16 -4 29v10q0 35 32 59v1q0 84 70 132q42 22 86 22h23
q59 0 113 -74q17 -34 17 -72q0 -88 -77 -118l-41 -4q-56 0 -70 35l-1 10q7 30 28 30h3q7 0 49 -10h4q26 0 35 26q4 12 4 24v11q0 54 -66 78h-15q-67 0 -89 -50q-10 -25 -10 -65q0 -99 97 -138q11 -3 33 -5q75 0 129 153q16 69 16 137v2q0 16 -10 16q-93 47 -93 146
q0 101 66 140q-11 124 -11 165v7q0 43 6 89q-83 -67 -148 -67h-12q-116 0 -157 142q-7 29 -7 50v5q0 79 76 138q29 15 51 15zM227 561q77 20 121 42q36 19 75 54q63 61 63 159q0 55 -61 90l-21 5q-41 0 -86 -42q-36 -40 -60 -128q-28 -118 -28 -157q-1 0 -3 -23zM-14 436
l10 -81q13 16 30 16q28 0 57 -41h1v2q0 46 7 137q-51 -13 -105 -33zM1 318v-1l10 -98q27 13 27 41v3q-29 49 -37 55z" />
    <glyph glyph-name="I" unicode="I" horiz-adv-x="176" 
d="M372 941h12q96 0 140 -111q9 -31 9 -58q0 -103 -87 -138q-20 -6 -42 -6h-12q-64 0 -100 70q-8 24 -8 48v7q3 36 30 36l5 1q28 0 28 -64q14 -35 60 -37q43 0 61 55q3 19 3 34q0 57 -56 94q-16 8 -35 8q-71 0 -114 -97q-10 -28 -10 -54v-3q0 -43 36 -135q7 -26 7 -51v-15
q0 -86 -77 -152l-31 -19q33 -97 81 -223h1l42 1q116 0 185 -76q33 -41 33 -96q0 -91 -78 -140q-25 -12 -48 -12h-1q-59 0 -75 25q-3 7 -3 13q3 33 30 33l47 -9q41 0 63 65q3 13 3 24q0 73 -88 99q-35 10 -72 10l-24 -2l3 -46q0 -92 -106 -143l-32 -35q-51 -41 -113 -41h-14
q-139 0 -204 83q-16 13 -40 68q-17 56 -52 76q-23 12 -45 12h-11q-59 0 -80 -61q-4 -19 -4 -32q0 -41 39 -61l10 -1l24 3q29 -6 29 -29v-3q0 -24 -27 -33l-20 -2q-84 0 -114 97l-2 20v20q0 95 95 137q32 9 55 9q47 0 93 -29v1q11 59 54 106q43 42 97 42h6q24 0 48 -13l30 2
h12q66 0 104 -47v1q-26 67 -53 153h-17q-37 0 -77 12q-9 -6 -42 -10q-55 0 -108 63q-38 55 -38 153q0 42 13 98q-59 -29 -119 -29q-96 0 -145 99q-11 30 -11 57v18q0 88 80 139q35 17 69 17h20q67 0 94 -80q5 -26 5 -52v-11q0 -25 -24 -34h-14q-22 0 -25 57q0 59 -47 59
q-69 0 -91 -68q-6 -20 -6 -39q0 -62 65 -94q14 -6 28 -6h11q65 0 162 80q51 91 183 153q84 35 131 35h12q23 -5 23 -31v-2q-5 -18 -54 -86q-21 -46 -21 -99l11 -4l6 1q23 0 52 -12v1l-1 24q0 100 84 177q47 35 94 35zM-92 565q0 -115 71 -164q33 -19 68 -19h3
q-30 120 -30 199v37l1 15q-22 -17 -22 -32v-11l1 -19q0 -20 -29 -24h-8q-22 0 -27 41v1q0 78 98 124q9 52 59 140h-1q-106 -48 -166 -191q-18 -50 -18 -97zM124 653v-1q0 -64 42 -225l1 -1h1q32 33 32 93q0 102 -71 133zM-102 30q0 -75 38 -128q32 -40 101 -40q85 0 120 102
q6 17 6 46h-1l-62 -52q-26 -16 -54 -16h-6q-43 0 -83 46q-6 13 -6 21v6q3 28 27 28h9q9 0 38 -34q10 -6 19 -6q29 0 42 37q4 15 5 31q0 61 -47 76q-14 4 -32 5q-82 0 -109 -81q-5 -22 -5 -41z" />
    <glyph glyph-name="J" unicode="J" horiz-adv-x="179" 
d="M173 975h11q25 0 29 -33q0 -10 -21 -56q-36 -102 -36 -137q36 -10 71 -38h3q-11 45 -11 81q0 111 97 165q36 13 58 13q9 5 30 5h19q115 0 155 -115l2 -19v-10q0 -27 -21 -48v-30q0 -92 -87 -131q-26 -7 -43 -7h-16q-47 0 -83 37v-1q8 -29 8 -59v-27q0 -113 -117 -191
q27 -91 31 -91q15 0 116 -44q53 -25 113 -71q113 -104 113 -220v-27q0 -76 -85 -130q-30 -14 -65 -14q-78 0 -123 70q-12 23 -12 45v9q0 72 72 108h14q21 0 27 -32v-3q0 -17 -36 -39q-12 -13 -12 -38q0 -37 61 -54q56 0 79 40q16 20 16 50q0 139 -164 232q-45 26 -88 39
l-5 1v-1q42 -146 42 -215q0 -102 -57 -128q-12 -7 -41 -7q-3 -1 -23 -25q-51 -52 -136 -52q-74 0 -126 40l-12 -1q-76 0 -111 79h-1v-20q0 -69 -83 -94q-15 -4 -38 -4h-2q-85 0 -140 95q-12 30 -12 58v5q0 131 108 184q37 15 82 15q48 0 91 -25v1q44 95 176 150
q83 25 117 26h4v1q-10 40 -12 40h-26q-38 0 -79 14q-16 -7 -29 -7h-16q-49 0 -103 59q-47 62 -47 156v24q0 24 6 54q-40 -18 -80 -18q-115 0 -178 92q-27 44 -27 96v15q0 86 69 138q27 14 61 14q15 0 32 -4q19 4 43 4q84 0 127 -77q11 -27 11 -47v-9q0 -59 -29 -80
q-4 -3 -19 -5q-21 0 -30 24l-1 8v1q0 10 13 35l2 18q0 48 -54 66l-25 3q-28 0 -66 -24q-45 -41 -45 -88v-3q0 -113 106 -113h14q53 0 129 78q1 9 80 88q33 40 71 69q77 67 164 67zM286 798v-9q0 -22 8 -52h1l-1 6q0 41 33 87q17 15 32 15q24 0 32 -21l2 -12q0 -11 -25 -40
q-8 -14 -8 -24v-9q0 -40 43 -56l20 -2q70 0 70 84q0 102 -87 135l-29 5q-65 0 -88 -80q-3 -14 -3 -27zM-73 590v-9q0 -126 84 -176q36 -14 60 -14l12 1v1q-24 113 -24 204q0 31 3 69h-1q-38 -18 -38 -80q-11 -21 -32 -21q-13 0 -25 15q-6 9 -6 24v8q0 73 94 125q21 6 21 15
q17 83 28 108v0q-33 -14 -85 -61q-63 -68 -73 -101q-18 -48 -18 -108zM157 677q0 -59 42 -234h1q36 32 36 95q0 104 -72 138l-7 2v-1zM-79 7v-20q0 -67 50 -117q35 -26 80 -26h23q72 0 105 89q6 24 6 43v12q0 78 -53 232q-49 0 -120 -50q-91 -79 -91 -163zM-402 -61v-9
q0 -46 56 -80q17 -6 27 -6h14q35 0 47 27l1 8l-6 33q7 29 26 29h11q22 -6 22 -13h1v2q-7 34 -7 67l2 41q-32 31 -68 31h-7q-86 0 -113 -86q-6 -24 -6 -44z" />
    <glyph glyph-name="K" unicode="K" horiz-adv-x="179" 
d="M-12 974h10q19 0 26 -21l1 -11v-2q0 -4 -30 -85q-28 -93 -28 -230v-12q3 -111 11 -111l20 -11q35 34 52 113q32 157 50 209q19 43 52 87q42 44 52 47q36 27 73 27h11q23 0 48 -15q32 11 68 11h23q99 0 146 -105q6 -20 6 -34v-9q0 -36 -29 -71q-4 -31 -28 -84
q-51 -76 -123 -76h-6q-93 0 -139 87q-10 26 -10 52v1q0 85 85 117q14 3 26 3q53 0 53 -39v-3q0 -22 -25 -29l-6 -1l-32 6q-26 0 -36 -53q0 -54 63 -72q6 -2 22 -3q50 0 82 64q12 31 12 70q0 75 -75 105q-13 3 -37 5q-44 0 -127 -83q-38 -47 -56 -83l-54 -140
q-40 -89 -84 -147v-1q76 -76 76 -88q30 -39 51 -102q20 -61 42 -263q21 -84 40 -106q33 -31 53 -36q25 -7 33 -7h21q63 0 108 98q9 27 9 50q0 60 -62 96q-17 6 -30 6h-6q-48 0 -63 -52l-2 -23q0 -23 32 -46q7 -4 32 -6q17 -12 17 -29v-1q-3 -32 -28 -32h-6q-62 0 -101 72
q-11 22 -11 49q0 93 93 128q17 5 31 5h21q68 0 125 -83q6 -19 24 -29q32 -32 32 -78v-8q0 -84 -90 -149q-43 -27 -70 -27q-14 -8 -53 -8h-7q-71 0 -107 24l-7 -1q-42 2 -59 6q-41 16 -66 61q-16 26 -36 142q-21 151 -36 243q-23 117 -43 146l-1 1h-1q-18 -13 -18 -16
q41 -266 41 -338q0 -149 -72 -220q-35 -24 -72 -24h-18q-9 0 -13 2q-38 -34 -122 -34q-41 0 -95 18q-35 14 -78 56q-41 46 -41 98v11q0 48 45 91q37 122 157 122q105 0 142 -104q6 -22 6 -45v-7q0 -59 -60 -110q-26 -15 -50 -15q-39 0 -77 28q-11 14 -11 28v1q0 23 26 31h10
q8 -3 36 -21q11 -3 18 -3h2q23 0 41 58l1 7q0 60 -49 81q-17 7 -35 7h-3q-75 0 -95 -89q-6 -29 -6 -52q0 -63 88 -109q24 -7 38 -7h18q101 0 132 128q6 25 6 49v18q0 56 -43 319q-82 25 -82 81v7q0 48 76 75q0 66 19 169q-78 -72 -152 -72h-13q-105 0 -145 84
q-33 33 -33 100v2q0 97 77 153q27 12 45 12h12q29 0 63 -27q35 0 83 -39q31 -34 31 -65v-18q0 -34 -26 -55l-14 -6q-33 7 -33 28v9l10 35q0 27 -53 47l-13 1q-64 0 -88 -70q-7 -16 -7 -35q0 -63 64 -83q25 -5 44 -5q94 0 199 180l32 72q19 35 33 35z" />
    <glyph glyph-name="L" unicode="L" horiz-adv-x="182" 
d="M254 958h19q153 0 217 -178q12 -44 12 -84v-4q0 -124 -96 -194q-43 -27 -105 -27h-2q-31 -59 -135 -106q-31 -13 -59 -21q26 -140 26 -191q0 -117 -73 -187q103 -82 141 -89q74 -35 124 -35q51 0 119 77q32 49 32 91q0 63 -64 111q-24 10 -40 10q-59 0 -87 -61
q-5 -14 -5 -29v-1q0 -40 43 -88l1 -10q-7 -24 -14 -24q-2 -5 -20 -6q-36 0 -64 68q-11 35 -11 62q0 97 100 143q27 10 57 10q103 0 156 -119q2 -15 24 -41q20 -35 20 -84q0 -56 -66 -130q-56 -45 -119 -45h-6q-30 0 -43 2l-18 -2h-3q-33 0 -84 18q-26 -22 -64 -22h-13
q-57 0 -189 103h-1q-102 -99 -208 -99h-17q-113 0 -176 106q-17 41 -17 82v13q0 91 102 132q27 6 32 15q30 32 80 32h6q69 0 165 -88l50 -39q6 54 6 94q0 59 -26 208q-33 0 -136 37q-87 41 -145 98q-98 100 -98 211v17q0 184 153 244q32 9 63 9q96 0 134 -87q6 -19 6 -34
v-20q0 -67 -89 -93l-11 -1q-31 4 -31 31q0 25 28 34q14 1 35 20q5 12 5 20q0 48 -52 63l-28 4q-54 0 -109 -74q-32 -52 -32 -119v-17q0 -129 154 -222q82 -42 101 -42q26 -7 41 -7q-33 189 -33 236q0 227 154 293q30 9 59 9q10 0 24 -4q49 21 100 21zM59 669v-21
q5 -51 35 -239h1q20 2 86 35q16 9 51 44v1q-59 31 -59 109q0 67 54 93q13 2 24 2h4q58 0 76 -79l1 -19v-12q0 -25 -6 -48q24 0 57 26q55 53 55 135q0 71 -51 143q-46 56 -125 56q-133 0 -186 -135q-17 -45 -17 -91zM-391 -31q0 -90 89 -122q23 -7 49 -7h2q85 0 163 77
q-86 74 -144 109q-41 26 -71 26h-2q-53 0 -79 -52q-7 -17 -7 -31z" />
    <glyph glyph-name="M" unicode="M" horiz-adv-x="178" 
d="M-280 974h12q62 0 140 -62q52 -57 59 -82q18 -30 35 -82q20 -51 64 -321l18 -112h1q15 193 55 333q41 141 83 201q71 95 154 119q41 6 67 6q131 0 175 -107q3 -18 3 -27v-5q0 -25 -16 -52v-11q0 -103 -88 -155q-33 -14 -66 -14q-90 0 -131 84q-7 23 -7 39v17l2 22v2h-1
q-26 -121 -26 -307v-43q0 -297 14 -376q2 0 4 -24h1q0 32 30 74q50 49 76 49q11 4 29 4h4q80 0 132 -74q13 -26 20 -63q33 -35 33 -67v-16q0 -45 -53 -103q-40 -43 -115 -43q-78 0 -107 23q-9 2 -34 28l-12 -1h-20q-84 0 -115 160q-16 102 -16 268v71q0 66 2 99v2h-1
q-18 -140 -18 -253l-8 -295q-9 -93 -22 -93q-8 -8 -18 -8h-2q-29 0 -38 40q-98 439 -98 474l-18 107h-1v-3l2 -270v-35q0 -229 -121 -296q-28 -17 -53 -17q-14 -5 -38 -5q-124 0 -164 120q-7 17 -7 38v11q0 41 40 83q4 0 14 28q11 21 43 52q42 32 79 32h9q72 0 121 -68
q7 -15 11 -31h1l2 52q0 528 -33 756q-6 34 -13 34q-8 12 -17 12q-15 17 -53 17q-77 0 -105 -92q-4 -18 -4 -39v-1q0 -82 57 -107q16 -4 28 -4h8q32 0 46 42l1 14q0 11 -28 29q-17 16 -17 29q0 18 19 28l14 2q28 0 63 -41q13 -24 13 -51q0 -80 -84 -112q-19 -4 -35 -4
q-103 0 -141 108q-5 25 -9 25q-30 19 -30 67v16q0 60 88 130q30 17 58 17l5 -1q24 9 48 9zM283 780v-1h1q15 47 52 68q23 11 44 11q71 -2 83 -33q2 -4 2 -12q0 -27 -34 -32l-46 11q-27 0 -38 -28q-3 -4 -6 -31q0 -47 55 -64q7 -2 27 -2q54 0 80 79l2 26v3q0 70 -73 123
q-23 12 -48 12q-12 0 -29 -8q-27 0 -61 -84zM282 778v-2h1v2h-1zM281 775v-2h1v2h-1zM280 771v-3h1v3h-1zM337 1q0 -45 36 -45h9l22 8h6q25 0 29 -31v-5q0 -23 -31 -35l-23 -2q-63 0 -90 40v-1q44 -85 103 -85h6q60 0 91 102q3 17 3 29v12q0 70 -72 90l-16 2q-45 0 -69 -54
q-3 -10 -4 -25zM-378 -30q0 -87 65 -115q11 -5 21 -5h15q40 0 63 33q28 36 28 44q-33 -36 -81 -36q-56 0 -73 35l-1 6v12q6 25 32 25h1q38 -13 44 -13h2q24 0 34 29q5 14 5 27q0 41 -56 60l-10 1h-17q-22 0 -59 -47q-13 -24 -13 -56z" />
    <glyph glyph-name="N" unicode="N" horiz-adv-x="180" 
d="M-314 976h18q52 0 90 -21l52 -7q21 3 67 28h12q22 0 26 -35l-6 -28q0 -119 172 -508q42 -98 85 -208h1l38 3q-19 147 -53 339q-16 123 -16 184v25q0 101 59 158q34 22 53 22q49 48 111 48h20q117 0 164 -116q9 -33 9 -57v-15q0 -87 -71 -145q-37 -25 -78 -25h-10
q-82 0 -128 91q-8 23 -8 48v2q0 76 67 101q13 4 24 4q31 -6 31 -24v-15q0 -18 -46 -33q-12 -11 -12 -29v-7q0 -50 62 -71l19 -2q61 0 84 91l3 23q0 81 -75 107q-21 7 -45 7q-102 0 -128 -144q-5 -28 -8 -120q0 -109 39 -449q19 0 105 -27q168 -70 168 -243q0 -89 -77 -136
q-22 -11 -50 -11h-2q-46 0 -84 26q-11 15 -11 26q5 33 30 33h5l36 -14q15 -6 25 -6h2q36 0 53 64l1 13v12q0 119 -121 173q-51 15 -77 15v-1l1 -71v-10q0 -177 -48 -249q-12 -11 -25 -11h-5q-27 0 -40 60l-93 253q-98 -44 -123 -58v-1q0 -106 -46 -169q-23 -24 -48 -24h-13
q-51 -64 -122 -64q-22 -7 -48 -7q-102 0 -162 107q-14 35 -14 65v12q0 44 38 71q0 42 43 88q53 48 118 48q75 0 130 -87l5 -14h1q15 10 18 10q0 74 -52 610v8h-1q-12 -35 -46 -57q-41 -26 -78 -26q-110 0 -147 121q-5 18 -7 52q-20 30 -20 58v12q0 79 115 121q26 6 44 6z
M-387 774v-3q0 -69 62 -96q13 -3 23 -3h7q29 0 56 33l3 11l-7 36v1q0 22 21 29l13 2q23 0 33 -26l2 -6h1q0 37 27 132h-1l-8 -1q-83 10 -95 10h-7q-87 0 -117 -66q-13 -31 -13 -53zM-107 636v-1q0 -31 49 -270q34 -193 34 -243h1q86 38 96 38q-114 276 -169 438l-10 38h-1z
M-376 -23q0 -61 53 -110q32 -24 55 -24h26q60 0 106 130q-8 -6 -22 -33q-31 -47 -87 -47q-27 0 -40 15q-5 6 -5 15v5q0 26 26 32l28 -1q12 0 32 30q6 12 6 24v7q0 37 -55 70q-12 5 -25 5h-2q-67 0 -92 -85z" />
    <glyph glyph-name="O" unicode="O" horiz-adv-x="179" 
d="M76 974h13q97 0 151 -75q16 -25 16 -57v-10q0 -28 -13 -56q37 -16 59 -68q17 -43 24 -129l2 -11q75 22 126 87q45 58 45 122q0 74 -62 100q-21 7 -35 7q-28 0 -51 -35l-3 -17q0 -20 21 -27q35 -11 35 -34v-5q0 -25 -32 -29h-1q-41 0 -76 48q-12 27 -12 49v2q0 74 90 109
q18 4 36 5q22 17 56 17q85 0 120 -113q4 -21 4 -36v-11q0 -84 -57 -151q-3 -19 -64 -83q-70 -57 -137 -75l1 -1v-1q6 -120 6 -217v-11q0 -109 -8 -178q34 40 85 40q84 0 119 -94q5 -20 5 -40q0 -147 -127 -200q-49 -20 -98 -20q-62 0 -134 38h-1q-37 -41 -104 -41h-1
q-55 0 -108 54h-2q-18 0 -43 9q-38 -42 -122 -61q-27 -5 -45 -5q-81 0 -144 68q-33 39 -33 94v3q0 108 79 143q30 11 74 11q57 0 73 -16q-21 149 -21 287v35q0 152 28 271v1h-1q-8 -21 -39 -53q-41 -27 -89 -27h-10q-110 0 -138 120l-3 32v3q0 27 9 54q-14 22 -14 45v11
q0 63 92 109q33 12 68 12h38q91 0 202 -65q45 41 70 41q36 25 81 25zM-405 740q0 -89 81 -89q51 0 65 36q22 60 27 60q8 8 22 8q32 -4 32 -32v-5l-1 -4v-1h1q20 71 58 135q-62 45 -112 45h-2q-114 0 -164 -110q-7 -25 -7 -43zM51 810q48 -26 75 -26h1q31 1 31 5
q-17 39 -66 39q-24 0 -41 -18zM18 752q-6 -24 -6 -44v-7q0 -100 104 -147q31 -10 61 -10q24 2 24 3q0 45 -25 177q-17 -4 -50 -6q-44 0 -108 35v-1zM-90 357q0 -247 51 -394h1q57 39 112 39h6q45 0 100 -28v1q27 127 27 343l-2 161h-37q-108 0 -185 99q-36 50 -36 132l-1 24
q-4 0 -18 -84q-18 -129 -18 -293zM383 42q0 -6 9 -21l2 -10q0 -25 -21 -34l-5 -1h-6q-34 0 -42 46h-1q-13 -49 -42 -80l-27 -22q73 -72 99 -72q42 8 70 27q55 43 55 116v9q0 45 -41 60q-12 4 -25 4q-25 -4 -25 -16v-6zM-219 18l-59 7q-48 0 -65 -36q-7 -17 -7 -41v-11
q0 -65 91 -92l24 -3q68 0 100 42q-21 32 -34 62q-21 69 -21 87q-12 -15 -29 -15zM-8 -98q42 -62 77 -62h12q20 0 41 16q-64 63 -83 63h-4q-16 0 -43 -17z" />
    <glyph glyph-name="P" unicode="P" horiz-adv-x="181" 
d="M-121 985q91 0 203 -54l13 -8q95 53 182 53h11q141 0 236 -107q40 -55 40 -120v-4q0 -91 -77 -133q-24 -9 -45 -9h-7q-64 0 -100 25q-8 11 -8 19v4q4 32 27 32h2l71 -16l9 -1q41 0 59 49q4 13 4 33q0 97 -124 145q-43 18 -96 18q-60 0 -122 -30q54 -48 71 -76
q63 -98 63 -198v-20q0 -162 -133 -262q-56 -36 -105 -36l-23 1l39 -111q79 40 175 40q153 0 264 -104q63 -70 63 -151v-22q0 -70 -65 -123q-38 -27 -83 -27h-11q-75 0 -122 70q-16 32 -16 59q7 96 39 96h13q21 0 26 -32l-13 -60v-8q0 -41 60 -60q19 -1 19 -3q63 0 87 76
l3 26q0 131 -183 189q-41 10 -76 10h-12q-75 0 -149 -38q10 -43 10 -86q0 -129 -88 -180q-24 -10 -43 -10h-12q-4 0 -25 -18q-59 -43 -118 -43h-5q-25 0 -74 12q-91 0 -158 76q-32 42 -32 84v22q0 40 31 70q0 50 47 108q56 61 134 61q76 0 125 -51q60 -57 60 -131
q0 -75 -71 -123q-25 -14 -58 -14q-71 0 -71 41q6 34 30 34l50 -9q35 0 53 57l1 20q0 60 -67 100q-19 12 -45 12h-13q-65 0 -104 -80q-7 -21 -7 -40v-7q0 -114 129 -169q24 -7 43 -7q71 0 138 89q24 47 24 94q0 75 -74 254q-14 37 -16 38q-90 41 -90 67q4 35 26 35
q16 0 39 -13l5 -3q-8 46 -8 81v30q0 173 121 309l32 32q-18 14 -76 30q-17 4 -40 5q-180 0 -251 -95q-37 -47 -37 -89q0 -49 54 -67q10 -3 20 -3h10q52 0 76 75q15 15 26 15q24 0 33 -24v-13q0 -29 -47 -84q-42 -34 -95 -34q-93 0 -132 89q-8 23 -8 40v14q0 36 22 80l-3 28
q0 74 115 124q91 35 193 35h12zM-42 577q0 -83 46 -217l9 -2q84 39 126 125q25 47 25 97v14q0 145 -93 233q-45 -40 -60 -61q-53 -79 -53 -189z" />
    <glyph glyph-name="Q" unicode="Q" horiz-adv-x="181" 
d="M37 978h11q41 0 90 -38q108 0 161 -175q14 -47 26 -143l10 -118q55 26 89 59q94 87 94 191v18q0 56 -53 95q-19 6 -30 7q-30 0 -52 -32l-1 -8q6 -17 6 -24v-2q-5 -31 -27 -31h-10q-27 0 -34 42v19q0 62 86 96q16 5 31 5h3q98 0 141 -123q6 -28 6 -54q0 -212 -238 -327
l-7 -1l1 -89q0 -126 -21 -235v-1h1q15 19 33 30q31 21 65 21h22q75 0 124 -71q20 -35 20 -79q0 -26 -6 -54q13 -24 13 -46v-8q0 -68 -103 -116q-34 -12 -71 -12q-78 0 -177 50l-44 25q-42 -44 -59 -44q-42 -30 -100 -30q-115 0 -167 86q-13 27 -13 57v16l1 11q-23 36 -41 82
q-17 50 -31 138q-1 12 -2 12q-166 -86 -166 -226q0 -50 54 -81q19 -6 30 -6q30 0 55 28l2 7v3q0 42 -27 53q-20 11 -20 30q7 32 27 32h13q20 0 53 -42q19 -30 19 -77q0 -69 -100 -97q-22 0 -45 -11q-14 -4 -37 -5q-77 0 -111 96q-5 16 -5 35v11q0 80 91 203q54 57 71 66
l55 33q22 12 35 17q-3 67 -3 114v62l-44 19q-51 27 -90 66q-2 0 -26 27q-84 102 -84 207v4q0 111 87 174q31 17 65 17h2q77 0 105 -89l3 -24q-5 -31 -30 -31h-3q-29 0 -37 50q-12 28 -40 28q-62 0 -84 -100l-2 -25q0 -89 83 -186q59 -56 87 -61q0 -2 9 -4v1q0 173 41 326
q34 90 85 113q27 10 59 14q34 30 76 30zM-89 474l-1 -3q51 0 94 15v1q-35 44 -35 98q0 69 56 104q18 5 29 5h2q60 0 81 -88l2 -32q0 -45 -26 -86q13 -8 46 -13q12 -3 44 -4v1q0 71 -25 231q-25 102 -49 139q-42 71 -88 71q-94 0 -121 -281q-9 -97 -9 -158zM-89 406h-2
l2 -140q101 0 181 -60q34 -27 48 -52q30 -55 30 -111v-13q0 -35 -16 -74l6 -4q44 132 44 454l-1 1h-9q-71 0 -133 34q-58 -35 -150 -35zM-85 200q0 -56 25 -171h2q19 6 47 6q54 0 110 -36q5 2 7 38q0 114 -120 150q-50 13 -71 13zM357 28l13 -44v-3q0 -23 -23 -30l-11 -1
q-28 0 -39 46l-3 18h-1q-5 -27 -47 -104l-6 -9v-1q82 -46 116 -46h2q90 0 146 88q14 35 14 59v17q0 54 -61 73q-18 4 -30 4h-1q-49 0 -67 -48zM-1 -142q-21 0 -48 9q33 -26 79 -26h14q50 0 86 52v1l-14 9q-47 -40 -90 -40z" />
    <glyph glyph-name="R" unicode="R" horiz-adv-x="183" 
d="M162 976h1q29 0 33 -26v-8q0 -24 -47 -40l-18 -9q36 -22 80 -61q56 -61 69 -99q68 -63 97 -69q19 -4 33 -4q79 0 106 96q4 19 5 41q0 67 -78 106q-20 5 -34 5q-44 0 -61 -39q-3 -10 -4 -21q4 -19 26 -50l1 -6v-1q-5 -33 -26 -33h-13q-24 0 -50 58q-3 17 -3 29v10
q0 76 90 113q19 5 31 5h20q77 0 141 -86q25 -45 25 -91q0 -128 -105 -187q-34 -14 -66 -14h-8q-51 0 -104 32v-1l1 -28q0 -102 -46 -159q-34 -33 -76 -33q19 -27 31 -55q21 -53 21 -126q2 -156 7 -213q9 -68 19 -95q43 -83 111 -83q70 0 111 98q9 31 9 49q0 69 -65 94
q-17 4 -26 4q-48 0 -72 -49q-3 -12 -3 -21v-6q0 -37 25 -49l11 -2q4 0 17 9h13q23 0 29 -26v-7q0 -30 -39 -40l-17 -1h-1q-73 0 -98 74q-5 15 -6 49q0 80 86 123q25 10 51 10h7q94 0 138 -91q0 -5 16 -11q41 -37 41 -77v-26q0 -100 -118 -156q-42 -14 -79 -14l-22 2l-11 -2
q-53 0 -98 33q-10 -3 -25 -3h-17q-84 0 -110 153q-6 54 -6 82l2 206q-2 111 -6 117q-28 -15 -54 -15h-5q-31 0 -55 15q7 -85 30 -269l2 -85q0 -93 -59 -159q-34 -38 -74 -38q-14 0 -30 6q-52 -46 -100 -46h-5q-89 6 -105 13q-59 18 -85 49q-44 45 -44 105v17q0 50 49 77
q43 119 149 119h5q94 0 135 -91q7 -24 7 -48v-13q0 -56 -61 -100q-25 -12 -50 -12q-30 0 -68 26q-11 14 -11 26q5 33 29 33h7q4 0 38 -20l9 -2q28 0 43 50l1 11q0 47 -47 70q-16 6 -35 6q-63 0 -88 -72q-7 -21 -7 -44q0 -80 72 -124q29 -13 54 -13q31 0 85 48q44 51 54 108
q3 19 3 37v14q0 77 -25 280q-10 106 -10 177q0 235 145 388q-58 22 -131 22q-185 0 -258 -150q-11 -27 -11 -52v-6q0 -51 75 -83q13 -4 26 -4h1q67 0 99 67q6 21 6 37q0 26 -38 42q-17 14 -17 32q0 25 34 29h1q24 0 62 -36q23 -32 23 -64v-11q0 -100 -111 -152
q-29 -8 -51 -8h-16q-82 0 -143 87q-18 36 -18 63l3 33q-19 36 -19 64v6q0 67 85 127q64 31 86 31q49 11 169 11h15q104 0 186 -39q62 50 97 50zM75 840q-86 -115 -86 -331l1 -39v-9q31 19 50 19h16q26 0 70 -24q47 62 47 149v15q0 141 -98 220z" />
    <glyph glyph-name="S" unicode="S" horiz-adv-x="179" 
d="M58 979h15q75 0 173 -71q49 -42 63 -77q5 -6 18 -73q27 -75 97 -75q63 0 87 78q4 23 4 40q0 65 -60 102q-19 6 -25 6q-35 0 -48 -42v-7q0 -9 24 -32q5 -9 5 -13q0 -26 -20 -33l-8 -1h-8q-38 0 -58 70l-2 12q0 73 87 107q18 4 31 4q92 0 139 -122q8 -26 8 -47v-11
q0 -105 -87 -160q-39 -17 -69 -17q-72 0 -122 54q-21 -38 -49 -49q-11 -5 -35 -5q-31 0 -50 17q-21 -10 -47 -10h-5q-31 0 -71 18q-25 -22 -45 -32q0 -4 177 -200q88 -110 111 -161q53 0 149 -42q30 -14 75 -59q92 -109 92 -203q0 -74 -52 -135q-29 -27 -69 -27q-21 0 -40 7
q-20 -5 -38 -5h-1q-47 0 -72 44q-17 25 -17 55q0 62 73 96q10 4 18 4h18q20 0 28 -31v-2q0 -22 -22 -29q-28 -4 -30 -8q-18 -14 -18 -32v-4q0 -22 23 -29h4q20 0 59 26q39 37 39 105q0 100 -82 158q-76 41 -112 41q14 -60 14 -105v-34q0 -109 -85 -198q-38 -32 -80 -32h-3
l-30 -17q-43 -21 -84 -21q-59 0 -118 15q-24 8 -46 24q-46 34 -68 89h-1q2 -9 2 -22q0 -62 -64 -89q-14 -4 -30 -4l-39 3q-17 -14 -49 -14h-1q-78 0 -107 134l-1 22v4q0 66 40 140q40 49 66 58q29 10 60 10q47 0 91 -32q20 76 67 113q32 23 66 23q33 0 70 -21h9h20
q38 0 80 -24q26 17 50 29v1q-40 70 -234 284l-38 49q-31 -6 -70 -6h-13q-88 0 -151 53q-53 35 -84 65q-43 55 -43 108v17q0 73 62 137q32 24 65 24l24 -2q27 11 58 11q75 0 121 -62q10 -25 10 -36q34 31 67 44q58 62 142 62zM-74 769q0 -41 33 -103q8 1 37 22v1
q-24 37 -24 74v19q0 65 49 99q18 9 36 9q59 0 75 -64q3 -16 3 -36q0 -50 -37 -99l22 -2q50 0 74 76q2 16 2 28q0 59 -83 111q-26 10 -48 10q-96 0 -131 -93q-8 -28 -8 -52zM-396 765q0 -99 130 -136q34 -6 59 -6l42 2q-31 64 -31 121v23l1 7q-15 -9 -29 -9h-5q-33 0 -73 40
q-5 12 -5 19v2q4 33 29 33h7q10 0 40 -28l7 -1q8 11 8 32v3q0 26 -61 38l-8 1q-51 0 -96 -69q-15 -33 -15 -72zM139 153q33 -41 33 -100q0 -77 -55 -119q-20 -9 -37 -9q-52 0 -75 74l-2 31v2q0 61 41 120v1q-21 7 -38 7h-2q-75 0 -104 -84q-5 -20 -5 -37q0 -120 71 -182
q34 -21 76 -21q112 0 153 175q5 28 5 63q0 44 -26 98q-26 -12 -35 -19zM-386 -11q0 -87 67 -132q22 -8 37 -8h6q20 0 24 30v8q0 15 -23 15q-33 9 -33 19q-2 0 -5 12v5q4 31 30 31h4q56 0 79 -36v1q-28 95 -43 107q-29 37 -66 37h-9q-48 0 -64 -49q-4 -17 -4 -40z" />
    <glyph glyph-name="T" unicode="T" horiz-adv-x="180" 
d="M-140 967h16q70 0 233 -77q54 64 77 64q33 0 33 -35q0 -15 -31 -38l-20 -23q104 -58 166 -94q72 -38 119 -38h9q33 0 51 46l1 12v9q0 34 -35 47l-8 1q-39 -10 -44 -10h-4q-31 3 -31 28v10q0 26 56 36l21 2q79 0 108 -92q2 -18 2 -30q0 -74 -78 -116q-22 -8 -46 -8
q-30 0 -79 14q-32 -19 -66 -19h-1q-76 0 -199 84l-4 2l-2 -40v-19q0 -102 56 -295q14 -54 16 -55q202 0 339 -133q74 -79 74 -180v-8q0 -158 -145 -220q-21 -7 -41 -7h-17q-108 0 -140 89q-7 23 -7 45v9q0 52 39 85q12 6 21 6h3q21 0 27 -22q2 -4 2 -10v-4q0 -6 -20 -34
q-8 -13 -8 -27q0 -72 93 -72h3q56 0 106 74q21 44 21 94q0 132 -175 219q-79 31 -156 31h-3v-1q24 -103 24 -154q0 -165 -115 -264q-55 -43 -144 -43l-5 1q-83 -38 -188 -38q-126 0 -191 85q-24 37 -24 85q0 45 26 81q0 56 66 126q58 48 118 48q25 0 65 -13v1q50 87 194 134
q19 4 19 6q-42 156 -42 224v4q0 93 44 229q-187 88 -299 88q-86 0 -136 -75q-16 -29 -16 -59q0 -77 67 -115q23 -8 43 -8q64 0 86 58q12 48 41 48q32 -4 32 -32v-1q0 -35 -45 -92q-45 -46 -111 -46h-5q-119 0 -165 135q-6 26 -6 45v16q0 79 84 150q59 39 124 39h28
q40 37 99 37zM-117 150q74 -58 74 -122v-17q0 -66 -56 -88q-12 -4 -28 -4q-65 0 -86 112l-2 26q0 23 10 65v1q-23 6 -37 6h-2q-59 0 -107 -80q-10 -23 -10 -40v-12q0 -90 90 -143q37 -14 70 -14h7q143 0 237 128q40 64 40 134v10q0 45 -25 145q-14 0 -93 -34
q-25 -12 -63 -48z" />
    <glyph glyph-name="U" unicode="U" horiz-adv-x="180" 
d="M349 967h17q104 0 181 -107q31 -52 31 -114q0 -114 -108 -172q-41 -16 -77 -16t-42 30v6q0 20 22 29l5 1h17q84 0 114 89q5 23 5 39v3q0 69 -70 121q-37 28 -89 28q-94 0 -208 -106l-28 -33l-39 -55q-62 -77 -100 -100v-23q0 -81 -45 -385q62 -16 149 -55l33 -17v570
q0 26 18 34l12 2h36q59 0 59 -11q8 -9 8 -23v-647l18 -14h1q1 23 33 59q42 37 101 37h12q70 0 124 -75q14 -22 21 -47q21 -12 32 -46q4 -14 4 -25v-5q0 -90 -100 -148q-42 -21 -108 -21q-62 0 -111 32q-14 -7 -32 -7h-4q-59 0 -97 66q-45 -91 -128 -91q-50 0 -92 36
q-103 0 -129 137q-5 43 -5 82q0 51 6 120h-1q-67 0 -137 -57q-65 -65 -65 -128q1 -74 39 -89q30 11 41 11q30 -7 30 -26v-8q0 -30 -54 -40l-18 -1q-60 0 -93 83q-9 28 -9 60v21q0 99 118 192q41 25 93 39q24 6 64 10q22 160 42 345q-48 -14 -76 -14h-6q-141 0 -201 109
q-17 37 -17 86q-20 42 -20 69v10q0 86 112 135q29 10 56 10q102 -6 113 -16q84 -34 136 -152q15 -32 29 -104q54 53 65 75q17 30 81 96q128 106 231 106zM-388 744v-16q0 -90 108 -115q12 -3 54 -6q36 0 80 22l3 108q-3 98 -14 98q-55 59 -115 59q-40 0 -92 -65
q-24 -43 -24 -85zM-73 133v-1q-5 -53 -7 -109q0 -112 55 -174q20 -15 37 -15h11q43 0 84 100q10 27 10 48v70q-43 37 -190 81zM332 9q0 -39 33 -51q9 -3 39 -6q20 -8 20 -27v-7q0 -23 -34 -29l-14 -1q-62 0 -95 60q-24 22 -31 26q0 -33 22 -77q42 -63 107 -63h19q51 0 86 79
q13 32 13 70t-26 63q-30 27 -64 27q-55 0 -73 -40z" />
    <glyph glyph-name="V" unicode="V" horiz-adv-x="181" 
d="M382 971h19q120 0 169 -103q11 -26 11 -53q0 -187 -340 -285q18 -166 18 -213l49 -12q39 -13 80 -51q48 -52 48 -127q0 -140 -160 -221q-41 -21 -96 -34q-8 0 -19 -20q-36 -41 -57 -49q-44 -26 -81 -26q-28 0 -32 34q13 26 22 51q-27 0 -144 37q-205 87 -205 280
q0 169 210 287l-21 134q-76 -21 -111 -21h-13q-113 0 -162 82q-31 59 -31 115v14q0 121 129 175q18 4 27 4h13q54 0 78 -63q0 -7 12 -12q51 -41 51 -92v-5q0 -50 -35 -88q-14 -7 -26 -7q-23 0 -31 23v10q0 7 21 41q6 19 6 23q0 31 -55 59l-13 2h-8q-52 0 -86 -60
q-10 -21 -10 -50q0 -73 58 -95q31 -12 74 -12t106 24l-1 3q0 199 110 274q21 22 49 22h14q59 0 79 -63q4 -15 4 -34v-8q0 -99 -123 -200q-5 -1 -5 -2q0 -22 24 -142l130 45v1q-11 92 -11 144q0 115 90 183q47 21 48 28q61 53 127 53zM229 682q0 -32 4 -84h1q281 80 281 216
q0 56 -68 85q-20 7 -55 7h-1q-107 0 -150 -138q-12 -43 -12 -86zM-32 760v-12l-1 -7h1q70 60 70 123v4q0 23 -13 30l-16 3q-23 0 -37 -99q-4 -23 -4 -42zM10 452q89 -402 89 -416q6 -37 6 -77l-2 -34q30 2 30 7q42 96 42 195l-3 88q-22 -16 -30 -16q-24 0 -31 20l-1 7v10
q0 21 54 57l-26 203zM-271 184v-15q0 -154 200 -220q28 -9 75 -18v1l-71 268q-22 83 -45 196h-1q-32 -13 -90 -64q-68 -77 -68 -148zM260 248l-1 -1v-3q0 -90 -30 -237l-18 -58h1q160 63 160 178v3q0 86 -97 116z" />
    <glyph glyph-name="W" unicode="W" horiz-adv-x="180" 
d="M131 958h12q38 -5 38 -34q0 -5 -10 -24q-15 -113 -15 -207q0 -108 24 -343l42 -241l22 27l2 152v12q0 159 -54 398q-6 35 -6 57q0 123 122 168l26 17q33 18 67 18q107 0 148 -47q25 -27 35 -54q7 -18 7 -34v-4q0 -33 -21 -53q0 -124 -96 -171q-23 -11 -53 -11
q-74 0 -117 70q-11 25 -11 43l-1 -1h-1l-1 -40v-20q0 -63 20 -263l1 -95v-90l-1 -4q31 13 69 13h1q135 0 179 -123q11 -37 11 -72q0 -87 -73 -153q-39 -30 -83 -30h-8q-75 0 -75 40q6 34 31 34l55 -9q48 0 82 81q5 19 5 33v9q0 85 -67 113q-27 11 -58 11q-41 0 -71 -25v-1
q0 -56 -27 -184q-19 -66 -40 -96q-46 -65 -99 -65q-30 5 -30 30q7 45 7 65v6q0 83 -52 357q-27 177 -27 312v26q0 58 3 106v3h-1q-8 -75 -8 -105q0 -50 15 -432q0 -294 -101 -356q-23 -12 -44 -12q-35 7 -35 31l8 57q0 58 -30 170q-40 99 -139 99h-6q-71 0 -96 -59
q-9 -31 -9 -59q0 -63 61 -105q19 -7 29 -7q23 0 70 34h7q32 -3 32 -30v-8q0 -24 -64 -53q-22 -7 -42 -7h-6q-88 0 -142 113q-10 30 -10 60q0 138 114 179q33 8 60 8q59 0 110 -29v1q-30 162 -30 313q0 77 20 175h-1q-46 -35 -104 -35h-7q-127 0 -164 133q-5 28 -5 47v14
q0 64 53 119q34 32 75 32h4q24 0 51 -17q71 0 118 -61q13 -22 13 -47q0 -42 -27 -70q-13 -8 -25 -8h-3q-31 3 -31 27l-1 7q0 10 20 30l3 14q0 31 -69 41h-4q-58 0 -94 -77q-7 -21 -7 -36v-10q0 -51 74 -73l24 -2q62 0 102 60q49 61 56 80q59 127 74 134q2 3 18 5
q31 -5 31 -29v-9q0 -6 -18 -48q-55 -191 -55 -335q0 -78 52 -392q17 -109 17 -135h1q5 53 7 134l-16 427q12 168 26 226q42 169 137 169zM302 770v-1h1q7 21 32 21q22 0 28 -16q4 -7 4 -16q0 -8 -11 -51v-1q0 -39 51 -56l22 -1q30 0 57 40q18 28 18 58v9q0 70 -48 122
q-15 14 -40 14h-3q-2 0 -2 3h-3q-74 0 -106 -125zM43 671v-1h1v1h-1z" />
    <glyph glyph-name="X" unicode="X" horiz-adv-x="178" 
d="M-284 957h9q58 0 114 -47h1q11 4 25 4q115 0 212 -396v0q7 36 14 95q28 173 54 213q42 96 106 96h5l19 -1q46 36 97 36h18q104 0 137 -35q54 -40 54 -113v-12q0 -45 -34 -65q0 -25 -39 -83q-50 -56 -111 -56q-94 0 -139 74q-13 28 -13 60q0 89 67 117l14 1q30 -5 30 -31
v-2q0 -24 -31 -36q-14 -16 -14 -39v-22q0 -38 60 -55l26 -3h5q45 0 78 76q5 16 5 35q0 97 -63 116q-18 7 -47 7q-118 0 -217 -321q-25 -90 -44 -194l-1 -7q68 -324 101 -404q57 -134 157 -134h3q40 0 81 35q45 49 45 100v2q0 68 -58 106q-18 8 -35 8h-4q-48 0 -78 -53
q-5 -11 -5 -25v-2q0 -21 39 -68v-9q0 -25 -26 -31l-6 -1q-37 0 -66 67q-7 24 -7 43q0 88 99 135q31 8 57 8q94 0 145 -114l11 -49q25 -26 25 -51v-19q0 -43 -56 -103q-47 -41 -113 -41l-51 -4q-57 0 -112 34l-22 -3q-144 0 -203 337h-1q-20 -56 -28 -102q-29 -103 -60 -156
q-59 -95 -122 -95h-20l-17 2q-42 -22 -93 -22q-115 0 -159 111q-9 30 -9 63v2q0 104 96 160q31 14 62 14q86 0 138 -85q11 -29 11 -50v-7q0 -37 -27 -78q-13 -8 -23 -8h-7q-23 0 -26 35q19 46 19 57q0 46 -68 68q-4 2 -12 2h-9q-60 0 -86 -83l-3 -28q0 -68 55 -99
q21 -9 40 -9h18q95 0 196 165q47 85 91 212l17 56q-73 318 -124 462q-69 171 -167 171q-61 0 -101 -105q-7 -24 -7 -46v-1q0 -64 57 -90q19 -4 36 -4q47 0 71 44q5 14 5 26q0 29 -30 59q-5 7 -5 12v2q0 20 19 28q7 3 14 3h3q46 0 62 -90l1 -11v-16q0 -69 -86 -112
q-29 -11 -55 -11q-110 0 -150 110q-5 16 -8 47q-24 21 -24 54v13q0 103 143 148q30 6 55 6z" />
    <glyph glyph-name="Y" unicode="Y" horiz-adv-x="180" 
d="M-265 967h15q66 0 144 -36q110 -63 110 -186q0 -48 -40 -261l-2 -31q0 -50 36 -101q12 -10 19 -10h9q41 0 79 140q43 120 80 232q31 77 59 108q102 131 200 131q102 0 134 -102q6 -23 6 -48v-10q0 -88 -72 -119q-25 -9 -62 -9h-1q-37 0 -49 18q-6 8 -6 18v1q0 23 25 30
l6 1q21 -3 39 -3q55 0 55 68v1q0 64 -43 83q-15 5 -29 5h-8q-63 0 -139 -101q-30 -111 -30 -195q0 -44 22 -277q3 -72 6 -72q67 -23 96 -42q28 -14 70 -50q39 -31 74 -77q57 -85 57 -163q0 -98 -67 -129q-7 -3 -34 -6q-22 0 -40 9q-30 -10 -54 -10q-84 0 -117 87
q-5 19 -5 38q0 56 25 87q10 5 19 5h3q21 0 28 -23l1 -10q-8 -34 -12 -60q0 -43 44 -57l19 -1q61 0 85 72q2 15 2 33q0 87 -77 159q-64 53 -120 68v-1q0 -50 -31 -160q-21 -56 -54 -106q-73 -93 -155 -93l-35 4q-77 -46 -187 -46q-57 0 -112 16q-20 -12 -55 -12
q-89 0 -139 111q-9 27 -9 45v19q0 76 81 178q68 69 178 69q65 0 119 -30q48 43 63 45q87 49 191 49h8l-5 151l-18 -44q-42 -90 -115 -90q-11 0 -36 6q-17 -6 -35 -6q-62 0 -102 84q-15 42 -15 83v27q0 64 31 159q13 59 13 117q0 107 -93 144l-38 10q-82 0 -113 -82
q-17 -43 -17 -77q8 -42 28 -61q30 -29 72 -29q54 0 71 42l2 14v9q0 18 -29 60v12q6 28 26 28h10q33 0 55 -70l3 -33q0 -86 -83 -118q-23 -9 -49 -9h-10q-116 0 -157 129q-3 19 -5 21q-33 29 -33 59v11q0 56 76 117q55 31 85 31q24 12 58 12zM-45 126q65 -67 65 -131v-24
q0 -70 -58 -93q-16 -4 -36 -4q-16 0 -33 11h-5l-14 -1q-51 0 -70 95l-1 20v1q0 54 47 116l-1 1q-37 13 -69 13h-7q-117 0 -160 -102q-7 -21 -7 -34q0 -55 78 -119q62 -39 136 -39h29q146 0 240 131q31 48 50 106q23 77 23 120l-1 3q-135 0 -206 -70z" />
    <glyph glyph-name="Z" unicode="Z" horiz-adv-x="178" 
d="M-198 979h12q46 0 136 -63q186 -119 222 -138l12 -6q36 46 75 65q82 48 140 48q142 0 142 -105q0 -99 -134 -122q-29 -3 -79 -3q-31 -23 -70 -23h-12q-24 0 -62 9q-40 -105 -59 -195q75 -44 113 -44l15 2q17 0 28 -19q3 -6 3 -14q0 -29 -47 -73q-31 -19 -61 -19
q-34 0 -88 30q-4 -35 -55 -148q-31 -62 -65 -121q207 -101 269 -124q56 -21 88 -21q55 -10 74 -10h3q94 0 122 94q3 15 3 26q0 78 -69 109q-24 6 -39 6q-58 0 -87 -71l-2 -10q6 -18 6 -24q-5 -31 -31 -31h-5q-25 0 -34 41l-1 12q0 66 78 128q36 21 76 21h5q103 0 155 -105
q13 -37 13 -73v-9q0 -83 -81 -148q-55 -30 -93 -30q-18 -23 -40 -33q-42 -22 -82 -22q-70 0 -302 116q-37 23 -84 45q-8 -24 -50 -69q-93 -85 -185 -85q-89 0 -139 92q-9 24 -9 44v20q0 85 101 135q31 10 57 10q34 0 91 -17q27 13 76 13q16 0 42 -4q19 102 69 305v1
q-10 3 -28 3q-29 0 -61 -32q-12 -11 -21 -11h-4q-31 3 -31 28v7q4 29 50 81q45 48 106 48l28 -2q24 70 52 120q13 26 47 63q-110 60 -253 153q-106 65 -151 65h-5q-56 0 -99 -76q-7 -22 -7 -34q0 -82 71 -122q19 -8 39 -8q38 0 77 59q13 14 21 15h11q28 -5 28 -28v-2
q0 -32 -64 -85q-36 -22 -73 -22h-8q-98 0 -152 116q-13 34 -13 71v13q0 92 110 155q33 13 64 13q13 0 40 -4q29 23 65 23zM247 747v-2q75 -26 109 -26q94 0 116 40q4 10 4 17v11q0 25 -50 32l-21 1h-9q-50 0 -134 -60q-13 -13 -15 -13zM-409 -82q0 -51 59 -76q11 -4 27 -5
q76 0 157 89l18 30q-122 54 -167 54q-60 0 -90 -63z" />
    <glyph glyph-name="backslash" unicode="\" horiz-adv-x="2285" 
 />
    <glyph glyph-name="asciicircum" unicode="^" horiz-adv-x="1537" 
 />
    <glyph glyph-name="a" unicode="a" 
d="M288 755h7q15 0 46 -10q99 0 99 -152v-302q35 -33 46 -57q41 -76 41 -119v-22q0 -44 -37 -82q-19 -15 -42 -15h-4q-75 0 -101 74q-9 29 -9 53l-1 5h-1q-8 -17 -27 -17q-27 0 -40 53q-1 0 -1 4h-1v-17q0 -121 -52 -146q-14 -5 -25 -6q-65 0 -86 102v25q0 72 68 119
q27 11 31 11l-11 148q-47 46 -57 75q-31 58 -31 108v12q0 63 37 120q25 25 44 25q25 0 28 -30v-2q0 -16 -28 -42q-20 -33 -20 -76q0 -39 22 -84h1v15q0 187 72 222q15 8 32 8zM245 519l2 -88q26 -19 85 -60l1 -1v206q0 94 -29 114q-5 4 -12 4q-36 0 -46 -122zM252 350l8 -97
q44 -19 67 -78l5 -15h1v129q-33 33 -81 61zM161 117q0 -33 23 -55h2q15 21 15 131h-1q-39 -23 -39 -76zM440 190v-2q1 -64 6 -130h1q12 0 19 45v1q0 32 -25 86h-1z" />
    <glyph glyph-name="b" unicode="b" 
d="M260 761h35q133 0 196 -105q22 -42 22 -90v-14q0 -90 -83 -128v-1q104 -60 104 -219v-4q0 -152 -72 -182q-24 -8 -47 -8q-22 -12 -49 -12q-45 0 -72 34v0q-28 -29 -65 -29l-6 1q-13 -6 -30 -6h-3q-66 0 -89 67q-8 21 -8 46v12q0 87 95 119h5q19 0 26 -10l-8 255
q0 89 73 192l14 16q-17 4 -32 4h-2q-71 0 -104 -75q-6 -21 -6 -39q0 -43 32 -53q10 -12 10 -20v-5q0 -22 -24 -28h-8q-37 0 -64 60q-7 20 -7 43v15q0 88 92 145q36 19 75 19zM363 660q-49 -86 -49 -176v-35l2 -2h14l15 -1q39 15 52 40q14 27 14 63q0 71 -48 111zM315 385
l9 -160l1 1h3q24 0 32 -20l1 -8q0 -11 -24 -49q-9 -20 -9 -33q0 -49 32 -56l9 -1q58 0 58 155v8q0 97 -71 155q-17 9 -32 9zM219 197q0 -7 -36 -22q-29 -21 -29 -58q0 -40 22 -54q4 -3 16 -5q25 0 30 68l-2 71h-1z" />
    <glyph glyph-name="c" unicode="c" 
d="M351 759h3q90 0 136 -104q9 -28 9 -48v-28q0 -55 -42 -92q-18 -10 -34 -10h-17q-26 -18 -54 -18q-49 0 -82 46q-4 14 -4 24q0 25 32 29q10 0 40 -33q8 -4 13 -4h6q24 0 40 57v13q0 63 -50 100q-16 6 -27 6q-84 0 -101 -271l-3 -105q0 -195 88 -252q12 -6 20 -6h2
q36 0 72 55q16 35 16 69v16q0 99 -55 128q-4 2 -15 3q-23 0 -27 -30q-8 -27 -28 -27h-5q-25 0 -28 31v4q0 56 73 80l20 2q29 0 63 -24h5q74 0 98 -113l3 -46q0 -148 -124 -199q-23 -9 -48 -9h-19q-31 0 -61 18q-106 0 -144 156q-13 71 -13 165v36q0 284 104 350
q53 31 138 31z" />
    <glyph glyph-name="d" unicode="d" 
d="M271 758h17q30 0 56 -10q16 10 30 10h5q21 0 25 -29v-7q71 -40 109 -153q26 -82 26 -258v-63q0 -195 -105 -247q-10 -2 -22 -3l-22 3q-16 -10 -30 -10h-1q-41 0 -86 49q-29 -49 -91 -49h-8q-59 0 -85 80l-2 30q0 41 49 75q17 9 35 9h3l17 -1l-1 12l-6 218q-97 67 -97 156
v13q0 117 115 164q35 11 69 11zM148 574q0 -43 38 -79q0 45 41 131q12 25 55 70v1h-1q-93 0 -126 -73q-7 -27 -7 -50zM348 674q-33 -33 -42 -62q-20 -52 -20 -98l1 -53l1 -8q15 6 24 6q31 -3 31 -31v-2q0 -29 -50 -38h-1q6 -143 6 -201v-33l-2 -46q45 -55 59 -55
q28 10 51 56q24 65 24 141v64q0 268 -81 360h-1zM148 91q0 -19 21 -37q5 -1 5 -2q12 0 16 67q-8 4 -17 4q-20 0 -25 -32z" />
    <glyph glyph-name="e" unicode="e" 
d="M321 758h35q77 0 129 -69q18 -31 18 -65v-7q0 -56 -45 -90q-15 -7 -27 -7h-16q-18 -11 -33 -11h-20q-39 0 -70 50q-4 14 -4 21v6q0 25 24 30h10q19 0 33 -40q8 -7 15 -7h2q25 0 25 59q0 70 -72 70q-59 0 -80 -65q-7 -27 -7 -58v-8q0 -47 27 -86q42 14 65 14q54 0 71 -42
l2 -16q0 -37 -45 -50q-10 -2 -30 -2q-29 0 -60 13q-43 -61 -43 -185q0 -119 85 -154l13 -2h6q28 0 59 47q17 39 17 91q0 87 -53 101l-4 1q-24 -8 -33 -25q-3 -8 -3 -21v-17q0 -18 -28 -24q-34 0 -34 49q0 64 79 96l24 2q16 0 37 -9l23 2q68 0 92 -97q4 -24 4 -39v-30
q0 -84 -69 -155q-39 -26 -78 -26q-13 -8 -36 -8q-29 0 -68 23h-16q-66 0 -106 89q-18 53 -18 118v19q0 121 78 195q-63 53 -63 144q0 117 90 157l50 9q21 9 48 9z" />
    <glyph glyph-name="f" unicode="f" 
d="M236 749h2q37 0 122 -50q43 43 82 43h2q48 0 67 -56q2 -3 4 -25q0 -62 -83 -88l-27 -2h-1q-17 0 -40 9l-2 -20v-11q0 -17 7 -49h2q11 40 38 61q8 5 13 5h6q20 0 26 -22l1 -6l-5 -35q21 -85 21 -95l1 -8q-5 -59 -29 -70q44 -96 44 -169v-6q0 -94 -73 -141q-22 -9 -40 -9
h-5l-18 2q-26 -11 -48 -11q-82 5 -93 13q-101 39 -101 142v11q0 76 62 115q20 8 38 8q15 0 27 -6q17 6 33 6q35 0 77 -42q10 -15 10 -27v-5q0 -21 -23 -28h-12q-15 0 -29 28q-13 13 -26 13q-31 0 -49 -44l-3 -24q0 -61 52 -93q21 -6 32 -6q42 0 69 52q13 31 13 55v10
q0 40 -59 171l-1 6q-5 -3 -15 -26q-9 -12 -26 -12q-24 0 -28 33q0 17 43 74q-9 38 -9 64v9q0 53 21 115h-1q-72 43 -101 43q-23 0 -30 -39l-1 -9q0 -39 36 -51l7 -1l37 3q21 0 25 -35v-1q0 -25 -46 -29h-9q-79 0 -105 75q-5 16 -5 32v20q0 55 53 86q17 31 54 45z" />
    <glyph glyph-name="g" unicode="g" 
d="M335 759h33q70 0 123 -71q18 -31 18 -64q0 -72 -75 -103q-19 -4 -32 -4q-28 0 -73 24q-16 16 -16 27q6 31 31 31l45 -19l17 -2q42 7 42 51q0 41 -65 67l-28 3q-56 0 -107 -69q-27 -48 -27 -109q0 -85 66 -114l25 -7q37 14 66 41q13 14 29 44q10 13 24 13h3q18 0 26 -18
q2 -7 2 -14q-6 -33 -6 -54q0 -42 35 -107q18 -55 18 -102q0 -75 -60 -145q-31 -29 -67 -29h-3q-37 -27 -78 -27q-51 5 -76 15q-110 42 -110 144v12q0 80 66 120q19 6 33 6h12l18 -2q15 5 28 5h10q68 0 90 -63l4 -25q0 -25 -20 -36q-5 -3 -9 -3h-5q-23 0 -27 29q0 35 -19 35
l-16 2h-7q-36 0 -53 -62l-2 -17q0 -33 43 -85q21 -13 37 -13h9q50 0 93 88q6 23 6 38v1q0 42 -32 160l-1 10q-47 -28 -85 -28h-15q-109 0 -149 114q-6 29 -6 53v18q0 147 125 217q47 21 92 24z" />
    <glyph glyph-name="h" unicode="h" horiz-adv-x="721" 
d="M427 542q53 75 53 124q-2 29 -9 29q-14 0 -34 -89zM223 760h10q19 0 22 -31q-17 -65 -17 -164q6 -66 22 -158q16 11 66 58q0 90 35 190q37 75 90 98q8 3 29 3q30 0 44 -41q6 -17 6 -40q0 -85 -101 -203v-147q44 -16 64 -52q37 -60 37 -161q0 -73 -40 -97q-15 -9 -34 -9
q-13 0 -31 11q-27 6 -53 36q-40 55 -40 166q-1 0 -2 39l-9 -1q-24 0 -29 30q0 23 35 36v57l-54 -44q22 -111 22 -160v-22q0 -95 -62 -130l-40 -16l-18 -2q-63 0 -82 96q-3 11 -3 31v9q0 61 65 173l13 17q-27 132 -27 194q0 32 12 89h-1l-3 -1q-37 0 -50 39l-3 23q5 38 16 54
q11 15 26 15q26 0 32 -25q0 -9 -11 -37q16 13 31 39q14 38 33 38zM430 254v-1q0 -77 25 -173l5 -10q9 9 9 51q0 92 -39 133zM183 242q-33 -72 -33 -105q4 -61 27 -70q10 14 16 50l3 37q0 15 -11 88h-2z" />
    <glyph glyph-name="i" unicode="i" 
d="M413 748h25q56 0 69 -24l3 -11q0 -21 -42 -48q-43 -79 -43 -128q0 -34 11 -91h1q25 43 41 43h3q20 0 27 -22l1 -9v-3q0 -27 -50 -84v-1q54 -134 54 -190q0 -100 -83 -154q-38 -18 -67 -18q-21 -15 -52 -15h-24q-58 0 -119 46q-54 51 -54 129v13q0 77 76 103q10 3 38 5
q26 14 56 14q70 0 94 -75q3 -17 3 -31q0 -48 -38 -70l-12 -2q-30 4 -30 28v4q0 9 18 31l2 9q0 34 -27 43l-17 1q-20 0 -43 -27q-15 -24 -15 -53q0 -79 64 -105q18 -4 27 -4h6q34 0 82 90q8 20 8 30v1q0 44 -47 156h-1l-31 -2h-14q-119 0 -169 100q-14 35 -14 74
q0 180 195 237q45 10 88 10zM235 510v-3q0 -89 48 -111q27 -9 37 -9l22 2q-10 59 -10 110v11q0 92 68 175h-1q-48 -5 -48 -11q-18 -6 -72 -57q-44 -50 -44 -107z" />
    <glyph glyph-name="j" unicode="j" 
d="M420 757h15q57 0 69 -20q3 -4 3 -9v-11q0 -13 -39 -46q-42 -62 -42 -144l4 -78h1q33 34 37 34l9 2q16 0 27 -15q3 -5 3 -12v-11q0 -15 -38 -49q41 -24 41 -51v-9q-4 -28 -25 -28h-6q-5 0 -12 3v-2q40 -97 40 -144v-26q0 -74 -65 -117q-31 -14 -54 -14q-21 -14 -56 -14
q-37 0 -75 12q-16 -3 -32 -3q-72 0 -96 65q-11 28 -11 69v16q0 128 120 203l-20 12q-29 0 -64 42q-25 42 -25 88q0 117 105 204q35 23 77 35q65 18 109 18zM238 502v-6q0 -75 45 -93q12 -5 28 -5l21 1l1 1v1q-4 33 -4 62v41q0 97 74 192q-35 -2 -76 -23q-42 -31 -57 -63
q-32 -50 -32 -108zM222 144q0 -62 66 -81q19 -5 32 -5h19q43 0 63 72l2 19q0 32 -47 142l-13 45q-32 -4 -71 -39q-51 -50 -51 -153z" />
    <glyph glyph-name="k" unicode="k" 
d="M179 750q27 -6 27 -27v-1q0 -27 -38 -38q-12 -14 -12 -33l1 -1h1q29 0 64 79q11 15 22 15h12q20 0 24 -33q0 -7 -21 -51q-5 -42 -5 -83q0 -57 7 -131q43 22 43 51l2 30q-24 12 -24 33q7 25 13 25q0 2 18 5q24 160 101 160h11q7 0 21 -4q11 4 19 4h5q43 0 65 -62l2 -18
q0 -109 -117 -146q-27 -4 -27 -8q-10 -30 -39 -71q-16 -19 -28 -30q50 -30 72 -95q13 -36 13 -57q0 -3 22 -12q22 -10 53 -42q51 -62 51 -123v-1q0 -66 -36 -86q-16 -6 -26 -6q-28 7 -57 9q-41 11 -61 37q-12 16 -22 46q-11 33 -17 110l-1 14q-13 0 -25 13q-5 7 -5 19
q0 21 24 28h1q-13 95 -25 95q-4 4 -18 8v-1q16 -173 16 -219q0 -73 -39 -134q-24 -22 -54 -22q-2 -5 -23 -6q-58 0 -77 90l-2 25v8q0 53 45 109q17 16 27 16h1l10 -1q-18 191 -18 237v12q0 37 16 105h-1l-14 -1q-44 0 -58 36l-3 19v15q0 62 66 88zM414 586h2q60 26 60 84
q-6 17 -9 17q-25 -20 -34 -47q-5 -8 -19 -54zM423 186v-1q17 -108 46 -128q5 11 7 29q0 42 -46 94zM151 110q1 -29 13 -54l1 -1h1q13 33 13 79q0 29 -2 44q-18 -22 -24 -59q-2 0 -2 -9z" />
    <glyph glyph-name="l" unicode="l" 
d="M387 764h10q71 0 105 -67q7 -18 7 -37v-17q0 -138 -155 -192q-26 -7 -62 -11q6 -156 6 -233q0 -40 -7 -80q27 -42 83 -60h5q19 0 40 39q10 31 10 70v7q0 89 -34 135l-10 4h-4q-5 -3 -21 -24q-10 -8 -18 -8q-24 0 -28 30v7q0 40 61 56h12q36 0 65 -39h6q55 0 71 -99l3 -52
q0 -134 -92 -171q-40 -16 -62 -16h-1q-13 0 -29 6q-15 -7 -46 -7h-1q-38 0 -65 24q-27 -24 -50 -24q-62 0 -89 75q-3 11 -3 21v12q0 54 63 74l17 2l24 -2l-17 270q-87 43 -87 123v13q0 113 97 156q28 9 46 9q30 -6 30 -24v-12q0 -24 -61 -33q-51 -26 -51 -105q0 -34 29 -57
h1q0 48 35 129q27 45 78 75q45 33 89 33zM289 535v-32q74 0 125 55q34 37 34 94q0 41 -40 49l-19 2q-83 0 -99 -138z" />
    <glyph glyph-name="m" unicode="m" 
d="M516 762h6q40 0 40 -34q0 -19 -30 -31q-35 -28 -35 -164v-264q44 -29 68 -112q5 -24 5 -41q0 -56 -30 -104q-17 -18 -36 -18h-1q-33 0 -71 28q-24 25 -33 66q-7 43 -7 147q-18 0 -26 22l-2 11q2 28 28 28v133q0 119 7 175v1h-1q-22 -50 -34 -103q-17 -61 -23 -162
q-6 -96 -9 -289q-5 -47 -18 -47q-4 -6 -16 -6h-3q-19 0 -26 21q-2 8 -6 81q-33 316 -61 417l-14 56h-1v-1q11 -89 11 -286l1 -27h8q24 0 34 -18q3 -6 3 -15v-1q0 -29 -45 -29v-65q0 -110 -54 -134q-8 -3 -16 -3h-8q-48 0 -62 69l-1 17v16q0 108 80 148q-5 235 -10 332l-2 2
q0 45 -29 99l-30 37l-1 13q0 29 41 33h3q31 -1 67 -12q53 -26 96 -127q31 -90 31 -104h1q19 79 39 116q65 129 172 129zM497 169v-69q0 -17 5 -41h1q12 35 12 79q-5 37 -14 37q-4 -1 -4 -6zM137 165q-22 -33 -22 -73q0 -23 9 -35v0q14 27 14 104v4h-1z" />
    <glyph glyph-name="n" unicode="n" 
d="M450 756h10q44 0 57 -64q2 -11 3 -47q0 -85 -59 -130l-12 -5q20 -118 49 -237q8 -42 8 -68v-24q0 -82 -48 -159q-15 -23 -33 -23h-2q-20 0 -28 23q-10 53 -26 103q-28 89 -91 220q-34 63 -48 94h-1v-1q10 -74 22 -196q33 -7 78 -44q7 -12 7 -24q0 -25 -34 -29l-46 27h-1
l2 -77q0 -74 -51 -93q-7 -3 -21 -3h-1q-54 0 -70 85l-1 28v1q0 90 68 124q8 3 8 5q-13 141 -32 273q-4 45 -4 80q0 116 52 155l13 3h5q22 0 29 -39q14 -71 33 -131q48 -114 124 -275q17 -33 34 -88h1v2q-11 79 -41 189l-18 98q-62 23 -85 71q-3 14 -3 21v3q3 31 30 31h1
q23 0 37 -38l14 -16v1q0 133 40 163q17 11 31 11zM173 111q4 -46 14 -51q7 2 10 49q0 28 -3 65q-21 -24 -21 -63z" />
    <glyph glyph-name="o" unicode="o" 
d="M307 748h14q32 0 68 -26q21 0 63 -38q66 -79 66 -317q0 -277 -94 -336q-16 -10 -43 -19q-25 -22 -67 -22q-36 0 -73 24q-24 0 -70 46q-63 82 -63 292v35q0 261 96 320q20 12 42 18q28 23 61 23zM216 371q0 -253 67 -310q16 -10 31 -10h4q78 0 93 240l1 46v65
q0 219 -69 278q-16 8 -28 8q-68 0 -90 -167q-9 -76 -9 -150z" />
    <glyph glyph-name="p" unicode="p" 
d="M283 744h12q34 0 81 -14q16 14 32 14h2q27 0 31 -28v-3q0 -8 -9 -18q81 -75 81 -175q0 -98 -71 -165l-15 -12q47 -106 47 -175q0 -104 -89 -144q-27 -5 -27 -11q-33 -24 -71 -24q-115 0 -160 88q-12 30 -12 58v16q0 76 67 112q20 6 37 6q19 0 37 -6l7 1q57 0 82 -40
q4 -9 4 -18v-1q-4 -30 -24 -30h-13q-8 0 -21 16q-8 13 -28 13h-4q-26 0 -41 -60l-2 -22q0 -39 50 -68q13 -4 21 -4h5q42 0 72 81q5 19 5 37q0 52 -73 189q-34 80 -34 139h-1q-6 -28 -24 -28h-15q-70 0 -100 81q-4 16 -4 28v17q0 92 109 141q29 9 56 9zM178 584q0 -39 27 -51
q47 -10 47 -14q9 -9 9 -20h1q0 95 54 165l4 6q-23 14 -42 14q-57 0 -94 -63q-6 -20 -6 -37zM366 624q-17 -32 -17 -67q0 -55 46 -152h1q17 21 17 51v6q0 103 -47 162z" />
    <glyph glyph-name="q" unicode="q" 
d="M305 745h12q34 0 70 -27q23 -2 59 -36q69 -77 69 -313q0 -181 -38 -268h1q11 0 23 -23l1 -5v-5q0 -50 -58 -66l-21 -2h-4q-20 0 -45 10q-30 -17 -63 -17q-37 0 -73 25q-25 0 -73 51q-57 85 -57 282v36q0 264 100 320q14 9 37 16q26 22 60 22zM214 369q0 -120 18 -209h1
q0 12 24 25q17 7 49 7q41 0 79 -47q2 0 10 45q13 73 13 154v68q0 174 -51 249q-22 24 -45 24q-76 0 -93 -204q-4 -43 -5 -112zM241 131v-1q26 -76 69 -76h3q10 0 10 3q-50 64 -75 68z" />
    <glyph glyph-name="r" unicode="r" 
d="M282 757h16q127 0 173 -109q10 -37 10 -68v-19q0 -121 -113 -176l-4 -1q39 -38 47 -62q12 -24 26 -89q0 -13 12 -18q55 -31 85 -110q6 -25 6 -46q0 -46 -35 -62q0 -2 -30 -4q-16 2 -19 6l-14 -1h-3q-65 0 -88 129l-13 66q-39 12 -39 34q6 31 26 31h2q-20 100 -36 100
l-15 5v-1q19 -163 19 -217v-9q0 -96 -57 -128q-14 -5 -41 -8q-10 -7 -24 -7h-3q-61 0 -72 86l-1 27v13q0 52 31 94q17 15 32 15h10q8 0 16 -8v1q-16 168 -16 199v33q0 38 7 71v1h-1q-8 -16 -18 -16h-13q-33 0 -43 94q0 104 124 146q28 8 56 8zM164 599q4 -25 16 -58h1
q2 26 31 84q14 28 54 70q-39 -4 -68 -24q-34 -28 -34 -72zM272 452l1 -26q32 0 75 41q26 40 26 91q0 70 -29 113q-73 -68 -73 -219zM188 181q0 -3 -19 -18q-11 -17 -11 -51q0 -37 10 -55h2q22 20 22 70v5l-2 49h-2z" />
    <glyph glyph-name="s" unicode="s" 
d="M365 756h8q46 0 80 -31q19 -3 47 -33q19 -30 19 -66v-2q0 -99 -84 -160l-45 -39q45 -67 91 -124q34 -57 34 -130q0 -104 -87 -143q-13 -5 -53 -8q-35 -21 -83 -21h-21q-93 0 -141 76q-23 33 -23 73v12q0 69 61 111q22 10 46 10q14 0 25 -3q13 3 27 3q70 0 93 -72
q2 -12 2 -27q0 -56 -31 -65l-8 -1h-6q-24 0 -31 24v9q0 10 15 24v12q0 35 -36 35q-39 0 -52 -49l-2 -26q0 -53 64 -82l22 -3h5q51 0 96 57q10 23 10 42v6q0 67 -48 119l-76 106l-12 -1q-108 0 -151 119q-6 29 -6 57q0 53 36 115q24 31 50 31h4q27 -6 27 -21h1q32 43 72 54
l30 4q13 8 31 8zM307 605v-2q0 -61 48 -127q62 46 62 155v2l1 8q0 55 -49 55q-26 0 -52 -43q-10 -21 -10 -48zM174 564q0 -74 57 -104l9 -3v1q-37 64 -37 125q0 39 9 67q-38 -28 -38 -86z" />
    <glyph glyph-name="t" unicode="t" 
d="M261 761h11q37 0 115 -37q36 31 75 31h6q34 0 46 -40l1 -17v-6q0 -24 -43 -62q-31 -19 -61 -19l-25 3q-14 -36 -14 -59v-7q0 -55 57 -186q43 -79 60 -140q5 -27 5 -44v-13q0 -73 -66 -131q-24 -14 -45 -14h-12q-37 -16 -63 -16h-31q-111 0 -155 104q-9 26 -9 51v11
q0 75 69 127q24 14 53 14q26 0 59 -19q28 0 63 -42q15 -24 15 -53q0 -47 -45 -70q-9 -4 -18 -4h-8q-24 0 -28 29q0 20 37 35l2 9v7q0 21 -34 30l-7 1q-43 0 -57 -76v-6q0 -49 40 -64q47 -20 58 -23h2q22 3 57 31q21 24 21 52q0 45 -57 160q-46 94 -46 118q-5 28 -5 49v28
q-33 -23 -61 -23h-6q-69 0 -98 92q-3 12 -3 27v13q0 64 64 120q43 29 81 29zM176 603q0 -41 32 -60l14 -3q20 0 36 30q9 8 17 8h2q10 0 19 -6q7 22 29 66h-1q-58 30 -84 30q-33 0 -61 -48z" />
    <glyph glyph-name="u" unicode="u" 
d="M198 766h7q71 0 92 -111q3 -21 4 -50q0 -35 -23 -122q29 -8 53 -8q11 0 30 6v132q4 31 27 31h44q14 0 22 -7v2q0 43 -29 62q-13 5 -26 5q-28 0 -37 -28q-10 -30 -35 -30q-27 7 -27 25v9q11 43 33 59q24 25 60 25h11q80 0 105 -84q6 -27 6 -57q0 -67 -50 -148v-261
q0 -104 46 -158q4 -7 4 -19q0 -21 -30 -25h-3q-32 0 -76 44l-10 17h-2q-30 -65 -100 -65q-27 0 -60 14h-8q-54 0 -91 88q-17 47 -17 97v1q0 93 53 263q-27 25 -42 63q-17 47 -17 88v15q0 93 54 121q19 6 32 6zM190 703q-18 -19 -18 -79q0 -41 19 -75h1q14 71 14 95v7
q0 27 -15 52h-1zM262 422q-40 -128 -40 -199v-25q0 -107 56 -125l15 -2h5q46 0 60 101q3 28 3 53v191q-19 -2 -35 -2h-2q-32 0 -62 8z" />
    <glyph glyph-name="v" unicode="v" 
d="M229 766h12q55 0 83 -99l2 -27q0 -105 -60 -177l29 -81h1q40 38 75 76q-10 121 -10 164q0 106 51 137q19 7 28 7h8q58 0 70 -82q2 -14 2 -39v-5q0 -98 -85 -203v-1l15 -208q0 -163 -113 -207q-29 -10 -71 -10q-25 0 -30 31q21 52 21 75v2q0 55 -23 125h-1
q-40 -56 -47 -95l-1 -10v-14q0 -11 17 -19q12 -12 12 -25v-7q0 -18 -26 -26h-2q-38 0 -58 50q-6 16 -6 36q0 62 72 162q10 9 16 16l-35 86l-28 -1q-33 0 -40 21l-1 13v2q0 20 29 23l20 1q-36 110 -36 182v1q0 80 74 110q17 16 36 16zM234 706q-14 -25 -14 -68q0 -23 21 -101
h2q23 57 23 113q0 22 -24 53zM421 612l5 -80q34 55 34 118q0 44 -13 55h-2v1q-20 0 -24 -91v-3zM318 320q34 -109 34 -153v-13q0 -28 -11 -57q48 40 48 131l-11 149l-60 -56v-1z" />
    <glyph glyph-name="w" unicode="w" 
d="M468 767h9q49 0 63 -73l2 -40q0 -59 -45 -132q-9 -12 -29 -31q27 -202 27 -289v0q0 -139 -107 -195q-18 -6 -33 -6h-4q-20 0 -28 18l-2 15q25 65 25 103v3q0 24 -18 114h-2v-1q0 -60 -30 -147q-18 -40 -39 -66q-40 -39 -85 -39h-5q-26 0 -34 24v9q0 6 19 46q11 36 11 78
q0 108 -51 296q-28 9 -28 26v10q0 12 15 25q-5 44 -5 76q0 130 87 171l11 2h10q47 0 65 -56q5 -16 5 -45q0 -83 -67 -150q18 -90 56 -257l2 -17h1q3 45 3 81v61q0 279 51 350q12 11 24 11q19 0 26 -23q3 -7 3 -14v-36l-1 -13l1 -13v0q0 -61 9 -131q16 12 21 12l-2 102
q0 108 46 135q11 6 23 6zM473 705q-13 -27 -13 -123q13 21 19 61l2 21q-3 41 -8 41zM199 702q-10 -24 -10 -67l-1 -1v-1l2 -33q20 33 20 64v8q0 30 -11 30zM388 461v-1q15 -81 39 -174l5 -28h1v3q-8 85 -23 199l-10 -2zM433 256v-2h1v2h-1z" />
    <glyph glyph-name="x" unicode="x" 
d="M160 692l-1 -10q-5 -34 47 -96q-14 64 -26 85q-11 19 -17 21h-3zM169 751q13 0 30 -12h6q66 0 90 -132q3 -4 10 -35h1q40 179 127 179h9q46 0 66 -62l3 -32q0 -82 -91 -109h-5q-26 0 -31 22l-1 7q0 28 43 39q24 17 24 40v9q0 26 -13 26q-57 0 -84 -199l-7 -86l50 -206h1
q6 21 28 21h5q25 0 57 -53q24 -46 24 -86q0 -57 -40 -73q-13 -4 -24 -4h-4q-17 0 -33 10l-4 -1h-9q-59 0 -95 149h-1q-16 -78 -34 -108q-35 -53 -68 -53h-22q-39 0 -63 58q-4 14 -4 27v14q0 75 80 103h1q33 -4 33 -30q0 -24 -38 -38q-16 -15 -16 -42q0 -32 21 -32
q19 9 33 48q21 61 30 185l4 46l-43 191l-11 -2q-37 0 -79 90q-15 38 -15 67v9q0 42 42 55h17zM404 170q17 -80 27 -91q8 -13 17 -13v1q2 3 2 10v9q0 48 -46 84z" />
    <glyph glyph-name="y" unicode="y" 
d="M202 756h13q17 0 44 -12q54 -6 71 -53q4 -17 4 -26q0 -28 -8 -70h1q25 4 66 27q48 34 48 67v6q-22 -10 -31 -10q-30 4 -30 27v2q0 31 57 42h10q37 0 53 -50l2 -18q0 -52 -67 -112q-32 -24 -79 -37q-35 -11 -46 -11q-19 -94 -19 -114q5 -39 17 -39q21 0 62 58q21 34 46 79
q20 28 34 28h7q24 0 28 -30v-3q0 -5 -19 -34q-5 -20 -5 -34q0 -41 42 -181q11 -52 11 -77q0 -85 -65 -144q-26 -17 -52 -17h-5q-23 0 -23 2q-39 -22 -77 -22q-47 7 -85 21q-25 9 -55 40q-39 46 -39 97v14q0 73 57 119q23 14 43 14q26 -2 37 -5q18 4 29 4h11q67 0 91 -66
q5 -22 5 -38q0 -32 -33 -66q-9 -7 -19 -7h-5q-24 0 -28 31q1 7 22 40l2 5q0 39 -42 39h-1q-51 0 -69 -71l-1 -20q0 -62 56 -87l25 -3q60 0 109 91q8 20 8 38q0 31 -28 146l-1 12h-1q-35 -34 -75 -34q-13 0 -34 10q-83 0 -83 106q0 33 18 109q-93 40 -93 114v16q0 68 70 85z
M173 655q0 -33 50 -55q11 47 11 62q-5 31 -15 31q0 2 -13 3q-30 -4 -30 -19q-2 0 -3 -22z" />
    <glyph glyph-name="z" unicode="z" 
d="M234 755h5q39 0 141 -33q20 -4 30 -4q24 0 55 22l9 1q30 -5 30 -23v-12q0 -17 -40 -47q-33 -51 -72 -159q-13 -28 -13 -34q135 -68 135 -235q0 -111 -58 -182q-36 -34 -76 -34h-1l-27 1q-29 -14 -58 -14q-92 0 -133 43q-47 42 -47 105v14q0 73 57 122q23 15 46 15h9
q9 0 29 -6l37 3h1q53 0 88 -61q5 -19 5 -29v-1q0 -38 -20 -49l-10 -4h-13q-18 0 -24 26v3q0 10 6 27q0 20 -37 27h-2q-51 0 -71 -66l-2 -23q0 -56 53 -81q15 -4 27 -4h2q32 0 81 47q32 43 32 102v26q0 121 -64 169q-28 -34 -67 -34h-6q-46 0 -59 35l-3 21q0 47 63 58l11 1h3
q16 0 35 -3q24 64 58 148h-1l-10 -1h-10q-30 0 -117 24l-18 2q-34 0 -48 -44l-1 -15q0 -20 32 -29h4q11 0 41 33l13 4h5q21 0 26 -30v-3q0 -29 -49 -54q-17 -9 -30 -9h-17q-47 0 -78 55q-7 16 -7 31v9q0 44 31 80q26 69 89 69z" />
    <glyph glyph-name="bar" unicode="|" horiz-adv-x="2285" 
 />
    <glyph glyph-name="asciitilde" unicode="~" horiz-adv-x="1537" 
 />
    <glyph glyph-name="nonbreakingspace" unicode="&#xa0;" horiz-adv-x="100" 
 />
    <glyph glyph-name="NULL" horiz-adv-x="0" 
 />
    </font>
</defs>
</svg>
